<svg xmlns="http://www.w3.org/2000/svg" xmlns:xlink="http://www.w3.org/1999/xlink" x="0" y="0" width="661.8285522460938" height="301.8285827636719" style="
        width:661.8285522460938px;
        height:301.8285827636719px;
        background: #FFF;
        fill: none;
">
        <svg xmlns="http://www.w3.org/2000/svg"><g><defs><pattern id=".20186645189419727" width="10" height="10" patternUnits="userSpaceOnUse"><path d="M 10 0 L 0 0 0 10" fill="none" stroke="lightgray" stroke-width="0.5"/></pattern></defs><rect width="100%" height="100%" fill="url(#.20186645189419727)" stroke="lightgray" stroke-width="0.5"/></g><g><defs><pattern id="0.5179331511198391" width="50" height="50" patternUnits="userSpaceOnUse"><path d="M 50 0 L 0 0 0 50" fill="none" stroke="gray" stroke-width="1"/></pattern></defs><rect width="100%" height="100%" fill="url(#0.5179331511198391)" stroke="gray" stroke-width="0"/></g></svg>
        
        <svg xmlns="http://www.w3.org/2000/svg" class="role-diagram-draw-area"><g class="shapes-region" style="stroke: black; fill: none;"><g class="composite-shape"><path class="real" d=" M170,147.63 C170,139.35 176.71,132.64 184.99,132.64 C193.27,132.64 199.98,139.35 199.98,147.63 C199.98,155.91 193.27,162.62 184.99,162.62 C176.71,162.62 170,155.91 170,147.63 Z" style="stroke-width: 1; stroke: rgb(0, 0, 0); fill: none; fill-opacity: 1;"/></g><g class="arrow-line"><path class="connection real" stroke-dasharray="" d="  M218.93,146.52 L488.74,148.11" style="stroke: rgb(0, 0, 0); stroke-width: 1; fill: none; fill-opacity: 1;"/><g stroke="none" fill="#000" transform="matrix(-0.9999823931648033,-0.005934084629718689,0.005934084629718689,-0.9999823931648033,491.73936926477677,148.1318686319031)" style="stroke: none; fill: rgb(0, 0, 0); stroke-width: 1;"><path d=" M10.72,-5.15 L0,0 L10.72,5.15 L7.12,0 Z"/></g></g><g class="composite-shape"><path class="real" d=" M504.78,147.63 C504.78,139.35 511.49,132.64 519.76,132.64 C528.04,132.64 534.75,139.35 534.75,147.63 C534.75,155.91 528.04,162.62 519.76,162.62 C511.49,162.62 504.78,155.91 504.78,147.63 Z" style="stroke-width: 1; stroke: rgb(0, 0, 0); fill: none; fill-opacity: 1;"/></g><g class="arrow-line"><path class="connection real" stroke-dasharray="" d="  M189.74,112.73 L515.3,113.52" style="stroke: rgb(0, 0, 0); stroke-width: 1; fill: none; fill-opacity: 1;"/><g stroke="none" fill="#000" transform="matrix(-0.9999970147507714,-0.0024434585213446614,0.0024434585213446614,-0.9999970147507714,518.296146428151,113.52758323720332)" style="stroke: none; fill: rgb(0, 0, 0); stroke-width: 1;"><path d=" M7.14,-3.43 L0,0 L7.14,3.43 Z"/></g><g stroke="none" fill="#000" transform="matrix(0.9999970147507714,0.0024434585213449363,-0.0024434585213449363,0.9999970147507714,186.7388072975386,112.72283241407075)" style="stroke: none; fill: rgb(0, 0, 0); stroke-width: 1;"><path d=" M7.14,-3.43 L0,0 L7.14,3.43 Z"/></g></g><g class="arrow-line"><path class="connection real" stroke-dasharray="" d="  M184.99,97.43 L184.99,126.2" style="stroke: rgb(0, 0, 0); stroke-width: 1; fill: none; fill-opacity: 1;"/></g><g class="arrow-line"><path class="connection real" stroke-dasharray="" d="  M520.57,96.63 L520.57,125.4" style="stroke: rgb(0, 0, 0); stroke-width: 1; fill: none; fill-opacity: 1;"/></g><g/></g><g/><g/><g/></svg>
        <svg xmlns="http://www.w3.org/2000/svg" xmlns:xlink="http://www.w3.org/1999/xlink" width="660" height="300" style="width:660px;height:300px;font-family:Asana-Math, Asana;background:#FFF;"><g><g><g><g transform="matrix(1,0,0,1,177.14285278320312,155.12142944335938)"><path transform="matrix(0.017,0,0,-0.017,0,0)" d="M555 243L555 299L51 299L51 243Z" stroke="rgb(0,0,0)" stroke-opacity="1" stroke-width="8" fill="rgb(0,0,0)" fill-opacity="1"></path></g></g></g></g><g><g><g><g transform="matrix(1,0,0,1,511.6214294433594,155.92855834960938)"><path transform="matrix(0.017,0,0,-0.017,0,0)" d="M604 241L604 300L364 300L364 538L305 538L305 300L65 300L65 241L305 241L305 0L364 0L364 241Z" stroke="rgb(0,0,0)" stroke-opacity="1" stroke-width="8" fill="rgb(0,0,0)" fill-opacity="1"></path></g></g></g></g><g><g><g><g transform="matrix(1,0,0,1,176.06430053710938,186.91427612304688)"><path transform="matrix(0.017,0,0,-0.017,0,0)" d="M604 241L604 300L364 300L364 538L305 538L305 300L65 300L65 241L305 241L305 0L364 0L364 241Z" stroke="rgb(0,0,0)" stroke-opacity="1" stroke-width="8" fill="rgb(0,0,0)" fill-opacity="1"></path></g></g><g><g transform="matrix(1,0,0,1,187.42141723632812,186.91427612304688)"><path transform="matrix(0.017,0,0,-0.017,0,0)" d="M385 458C342 475 313 482 284 482C209 482 121 394 103 374C63 327 24 181 24 78C24 19 36 -11 60 -11C82 -11 101 -3 133 19C180 51 259 121 308 209L232 -205C227 -229 217 -249 205 -262L214 -276C245 -268 276 -262 300 -259C304 -205 310 -150 319 -100L405 356C416 417 422 443 432 474L418 480ZM118 59C104 59 96 80 96 113C96 209 139 359 181 409C193 424 222 433 254 433C282 433 303 427 351 406L330 311C301 174 160 59 118 59Z" stroke="rgb(0,0,0)" stroke-opacity="1" stroke-width="8" fill="rgb(0,0,0)" fill-opacity="1"></path></g></g></g></g><g><g><g><g transform="matrix(1,0,0,1,512.7500305175781,186.91427612304688)"><path transform="matrix(0.017,0,0,-0.017,0,0)" d="M555 243L555 299L51 299L51 243Z" stroke="rgb(0,0,0)" stroke-opacity="1" stroke-width="8" fill="rgb(0,0,0)" fill-opacity="1"></path></g></g><g><g transform="matrix(1,0,0,1,523.0357360839844,186.91427612304688)"><path transform="matrix(0.017,0,0,-0.017,0,0)" d="M385 458C342 475 313 482 284 482C209 482 121 394 103 374C63 327 24 181 24 78C24 19 36 -11 60 -11C82 -11 101 -3 133 19C180 51 259 121 308 209L232 -205C227 -229 217 -249 205 -262L214 -276C245 -268 276 -262 300 -259C304 -205 310 -150 319 -100L405 356C416 417 422 443 432 474L418 480ZM118 59C104 59 96 80 96 113C96 209 139 359 181 409C193 424 222 433 254 433C282 433 303 427 351 406L330 311C301 174 160 59 118 59Z" stroke="rgb(0,0,0)" stroke-opacity="1" stroke-width="8" fill="rgb(0,0,0)" fill-opacity="1"></path></g></g></g></g><g><g><g><g transform="matrix(1,0,0,1,357.4071350097656,88.25)"><path transform="matrix(0.017,0,0,-0.017,0,0)" d="M483 722L471 733C419 707 383 698 311 691L307 670L355 670C379 670 389 663 389 646C389 638 388 629 387 622L359 468C329 477 302 482 277 482C208 482 114 410 68 323C37 265 17 170 17 86C17 21 32 -11 61 -11C88 -11 125 6 159 33C213 77 246 116 313 217L290 126C279 82 274 50 274 24C274 3 283 -9 300 -9C317 -9 341 3 375 28L456 88L446 107L402 76C388 66 372 59 363 59C355 59 349 68 349 82C349 90 350 99 357 128ZM114 59C98 59 89 73 89 98C89 224 135 380 184 418C197 428 216 433 243 433C287 433 316 427 349 410L337 351C300 171 159 59 114 59Z" stroke="rgb(0,0,0)" stroke-opacity="1" stroke-width="8" fill="rgb(0,0,0)" fill-opacity="1"></path></g></g></g></g></svg>
</svg>
