<?xml version="1.0" encoding="UTF-8"?>
<svg version="1.1" xmlns="http://www.w3.org/2000/svg" width="1275" height="1273">
<path d="M0 0 C420.75 0 841.5 0 1275 0 C1275 420.09 1275 840.18 1275 1273 C854.25 1273 433.5 1273 0 1273 C0 852.91 0 432.82 0 0 Z " fill="#DDB379" transform="translate(0,0)"/>
<path d="M0 0 C420.75 0 841.5 0 1275 0 C1275 420.09 1275 840.18 1275 1273 C854.25 1273 433.5 1273 0 1273 C0 852.91 0 432.82 0 0 Z M111 105 C111 184.2 111 263.4 111 345 C114.96 345 118.92 345 123 345 C123 368.76 123 392.52 123 417 C119.04 417 115.08 417 111 417 C111 436.8 111 456.6 111 477 C118.92 477 126.84 477 135 477 C135 480.96 135 484.92 135 489 C127.08 489 119.16 489 111 489 C111 540.48 111 591.96 111 645 C134.76 645 158.52 645 183 645 C183 648.96 183 652.92 183 657 C159.24 657 135.48 657 111 657 C111 823.32 111 989.64 111 1161 C146.64 1161 182.28 1161 219 1161 C219 1153.08 219 1145.16 219 1137 C222.96 1137 226.92 1137 231 1137 C231 1144.92 231 1152.84 231 1161 C254.76 1161 278.52 1161 303 1161 C303 1149.12 303 1137.24 303 1125 C306.96 1125 310.92 1125 315 1125 C315 1121.04 315 1117.08 315 1113 C318.96 1113 322.92 1113 327 1113 C327 1109.04 327 1105.08 327 1101 C354.72 1101 382.44 1101 411 1101 C411 1104.96 411 1108.92 411 1113 C418.92 1113 426.84 1113 435 1113 C435 1116.96 435 1120.92 435 1125 C438.96 1125 442.92 1125 447 1125 C447 1128.96 447 1132.92 447 1137 C450.96 1137 454.92 1137 459 1137 C459 1140.96 459 1144.92 459 1149 C462.96 1149 466.92 1149 471 1149 C471 1152.96 471 1156.92 471 1161 C700.68 1161 930.36 1161 1167 1161 C1167 1153.08 1167 1145.16 1167 1137 C1155.12 1137 1143.24 1137 1131 1137 C1131 1133.04 1131 1129.08 1131 1125 C1142.88 1125 1154.76 1125 1167 1125 C1167 812.16 1167 499.32 1167 177 C1163.04 177 1159.08 177 1155 177 C1155 153.24 1155 129.48 1155 105 C810.48 105 465.96 105 111 105 Z " fill="#474656" transform="translate(0,0)"/>
<path d="M0 0 C3.96 0 7.92 0 12 0 C12 312.84 12 625.68 12 948 C0.12 948 -11.76 948 -24 948 C-24 951.96 -24 955.92 -24 960 C-12.12 960 -0.24 960 12 960 C12 967.92 12 975.84 12 984 C-217.68 984 -447.36 984 -684 984 C-684 980.04 -684 976.08 -684 972 C-687.96 972 -691.92 972 -696 972 C-696 968.04 -696 964.08 -696 960 C-699.96 960 -703.92 960 -708 960 C-708 956.04 -708 952.08 -708 948 C-711.96 948 -715.92 948 -720 948 C-720 944.04 -720 940.08 -720 936 C-727.92 936 -735.84 936 -744 936 C-744 932.04 -744 928.08 -744 924 C-771.72 924 -799.44 924 -828 924 C-828 927.96 -828 931.92 -828 936 C-831.96 936 -835.92 936 -840 936 C-840 939.96 -840 943.92 -840 948 C-843.96 948 -847.92 948 -852 948 C-852 959.88 -852 971.76 -852 984 C-875.76 984 -899.52 984 -924 984 C-924 976.08 -924 968.16 -924 960 C-927.96 960 -931.92 960 -936 960 C-936 967.92 -936 975.84 -936 984 C-971.64 984 -1007.28 984 -1044 984 C-1044 817.68 -1044 651.36 -1044 480 C-1020.24 480 -996.48 480 -972 480 C-972 476.04 -972 472.08 -972 468 C-995.76 468 -1019.52 468 -1044 468 C-1044 416.52 -1044 365.04 -1044 312 C-1036.08 312 -1028.16 312 -1020 312 C-1020 315.96 -1020 319.92 -1020 324 C-1012.08 324 -1004.16 324 -996 324 C-996 331.92 -996 339.84 -996 348 C-992.04 348 -988.08 348 -984 348 C-984 351.96 -984 355.92 -984 360 C-980.04 360 -976.08 360 -972 360 C-972 367.92 -972 375.84 -972 384 C-968.04 384 -964.08 384 -960 384 C-960 391.92 -960 399.84 -960 408 C-956.04 408 -952.08 408 -948 408 C-948 411.96 -948 415.92 -948 420 C-944.04 420 -940.08 420 -936 420 C-936 427.92 -936 435.84 -936 444 C-932.04 444 -928.08 444 -924 444 C-924 451.92 -924 459.84 -924 468 C-920.04 468 -916.08 468 -912 468 C-912 471.96 -912 475.92 -912 480 C-908.04 480 -904.08 480 -900 480 C-900 487.92 -900 495.84 -900 504 C-896.04 504 -892.08 504 -888 504 C-888 511.92 -888 519.84 -888 528 C-884.04 528 -880.08 528 -876 528 C-876 531.96 -876 535.92 -876 540 C-872.04 540 -868.08 540 -864 540 C-864 547.92 -864 555.84 -864 564 C-860.04 564 -856.08 564 -852 564 C-852 567.96 -852 571.92 -852 576 C-848.04 576 -844.08 576 -840 576 C-840 583.92 -840 591.84 -840 600 C-836.04 600 -832.08 600 -828 600 C-828 607.59 -828 615.18 -828 623 C-831.63 623 -835.26 623 -839 623 C-839 619.37 -839 615.74 -839 612 C-843.29 612 -847.58 612 -852 612 C-852 608.04 -852 604.08 -852 600 C-855.96 600 -859.92 600 -864 600 C-864 596.04 -864 592.08 -864 588 C-867.96 588 -871.92 588 -876 588 C-876 580.08 -876 572.16 -876 564 C-879.96 564 -883.92 564 -888 564 C-888 579.84 -888 595.68 -888 612 C-884.04 612 -880.08 612 -876 612 C-876 623.88 -876 635.76 -876 648 C-872.04 648 -868.08 648 -864 648 C-864 691.56 -864 735.12 -864 780 C-867.96 780 -871.92 780 -876 780 C-876 791.88 -876 803.76 -876 816 C-872.04 816 -868.08 816 -864 816 C-864 812.04 -864 808.08 -864 804 C-852.12 804 -840.24 804 -828 804 C-828 800.04 -828 796.08 -828 792 C-824.04 792 -820.08 792 -816 792 C-816 788.04 -816 784.08 -816 780 C-812.04 780 -808.08 780 -804 780 C-804 776.04 -804 772.08 -804 768 C-776.28 768 -748.56 768 -720 768 C-720 771.96 -720 775.92 -720 780 C-696.24 780 -672.48 780 -648 780 C-648 776.04 -648 772.08 -648 768 C-640.08 768 -632.16 768 -624 768 C-624 764.04 -624 760.08 -624 756 C-620.04 756 -616.08 756 -612 756 C-612 752.04 -612 748.08 -612 744 C-608.04 744 -604.08 744 -600 744 C-600 740.04 -600 736.08 -600 732 C-596.04 732 -592.08 732 -588 732 C-588 728.04 -588 724.08 -588 720 C-584.04 720 -580.08 720 -576 720 C-576 716.04 -576 712.08 -576 708 C-572.04 708 -568.08 708 -564 708 C-564 700.08 -564 692.16 -564 684 C-560.04 684 -556.08 684 -552 684 C-552 676.08 -552 668.16 -552 660 C-548.04 660 -544.08 660 -540 660 C-540 636.24 -540 612.48 -540 588 C-543.96 588 -547.92 588 -552 588 C-552 576.12 -552 564.24 -552 552 C-555.96 552 -559.92 552 -564 552 C-564 540.12 -564 528.24 -564 516 C-567.96 516 -571.92 516 -576 516 C-576 512.04 -576 508.08 -576 504 C-587.88 504 -599.76 504 -612 504 C-612 507.96 -612 511.92 -612 516 C-631.8 516 -651.6 516 -672 516 C-672 512.04 -672 508.08 -672 504 C-679.92 504 -687.84 504 -696 504 C-696 507.96 -696 511.92 -696 516 C-699.96 516 -703.92 516 -708 516 C-708 508.08 -708 500.16 -708 492 C-711.96 492 -715.92 492 -720 492 C-720 480.12 -720 468.24 -720 456 C-716.04 456 -712.08 456 -708 456 C-708 448.08 -708 440.16 -708 432 C-704.04 432 -700.08 432 -696 432 C-696 424.08 -696 416.16 -696 408 C-692.04 408 -688.08 408 -684 408 C-684 404.04 -684 400.08 -684 396 C-680.04 396 -676.08 396 -672 396 C-672 392.04 -672 388.08 -672 384 C-664.08 384 -656.16 384 -648 384 C-648 380.04 -648 376.08 -648 372 C-616.32 372 -584.64 372 -552 372 C-552 375.96 -552 379.92 -552 384 C-544.08 384 -536.16 384 -528 384 C-528 387.96 -528 391.92 -528 396 C-520.08 396 -512.16 396 -504 396 C-504 399.96 -504 403.92 -504 408 C-500.04 408 -496.08 408 -492 408 C-492 411.96 -492 415.92 -492 420 C-488.04 420 -484.08 420 -480 420 C-480 427.92 -480 435.84 -480 444 C-476.04 444 -472.08 444 -468 444 C-468 447.96 -468 451.92 -468 456 C-464.04 456 -460.08 456 -456 456 C-456 463.92 -456 471.84 -456 480 C-452.04 480 -448.08 480 -444 480 C-444 491.88 -444 503.76 -444 516 C-440.04 516 -436.08 516 -432 516 C-432 531.84 -432 547.68 -432 564 C-428.04 564 -424.08 564 -420 564 C-420 579.84 -420 595.68 -420 612 C-423.96 612 -427.92 612 -432 612 C-432 627.84 -432 643.68 -432 660 C-435.96 660 -439.92 660 -444 660 C-444 691.68 -444 723.36 -444 756 C-440.04 756 -436.08 756 -432 756 C-432 767.88 -432 779.76 -432 792 C-428.04 792 -424.08 792 -420 792 C-420 799.92 -420 807.84 -420 816 C-427.92 816 -435.84 816 -444 816 C-444 819.96 -444 823.92 -444 828 C-420.24 828 -396.48 828 -372 828 C-372 831.96 -372 835.92 -372 840 C-348.24 840 -324.48 840 -300 840 C-300 843.96 -300 847.92 -300 852 C-276.24 852 -252.48 852 -228 852 C-228 855.96 -228 859.92 -228 864 C-204.24 864 -180.48 864 -156 864 C-156 856.08 -156 848.16 -156 840 C-159.96 840 -163.92 840 -168 840 C-168 832.08 -168 824.16 -168 816 C-171.96 816 -175.92 816 -180 816 C-180 812.04 -180 808.08 -180 804 C-183.96 804 -187.92 804 -192 804 C-192 800.04 -192 796.08 -192 792 C-180.12 792 -168.24 792 -156 792 C-156 795.96 -156 799.92 -156 804 C-124.32 804 -92.64 804 -60 804 C-60 800.04 -60 796.08 -60 792 C-56.04 792 -52.08 792 -48 792 C-48 819.72 -48 847.44 -48 876 C-59.88 876 -71.76 876 -84 876 C-84 879.96 -84 883.92 -84 888 C-68.16 888 -52.32 888 -36 888 C-36 844.44 -36 800.88 -36 756 C-32.04 756 -28.08 756 -24 756 C-24 653.04 -24 550.08 -24 444 C-20.04 444 -16.08 444 -12 444 C-12 348.96 -12 253.92 -12 156 C-8.04 156 -4.08 156 0 156 C0 104.52 0 53.04 0 0 Z " fill="#EAE5BF" transform="translate(1155,177)"/>
<path d="M0 0 C3.96 0 7.92 0 12 0 C12 55.44 12 110.88 12 168 C8.04 168 4.08 168 0 168 C0 270.96 0 373.92 0 480 C-3.96 480 -7.92 480 -12 480 C-12 523.56 -12 567.12 -12 612 C-27.84 612 -43.68 612 -60 612 C-60 608.04 -60 604.08 -60 600 C-48.12 600 -36.24 600 -24 600 C-24 572.28 -24 544.56 -24 516 C-27.96 516 -31.92 516 -36 516 C-36 519.96 -36 523.92 -36 528 C-67.68 528 -99.36 528 -132 528 C-132 524.04 -132 520.08 -132 516 C-143.88 516 -155.76 516 -168 516 C-168 519.96 -168 523.92 -168 528 C-164.04 528 -160.08 528 -156 528 C-156 531.96 -156 535.92 -156 540 C-152.04 540 -148.08 540 -144 540 C-144 547.92 -144 555.84 -144 564 C-140.04 564 -136.08 564 -132 564 C-132 571.92 -132 579.84 -132 588 C-155.76 588 -179.52 588 -204 588 C-204 584.04 -204 580.08 -204 576 C-227.76 576 -251.52 576 -276 576 C-276 572.04 -276 568.08 -276 564 C-299.76 564 -323.52 564 -348 564 C-348 560.04 -348 556.08 -348 552 C-371.76 552 -395.52 552 -420 552 C-420 548.04 -420 544.08 -420 540 C-412.08 540 -404.16 540 -396 540 C-396 532.08 -396 524.16 -396 516 C-399.96 516 -403.92 516 -408 516 C-408 504.12 -408 492.24 -408 480 C-411.96 480 -415.92 480 -420 480 C-420 448.32 -420 416.64 -420 384 C-416.04 384 -412.08 384 -408 384 C-408 368.16 -408 352.32 -408 336 C-404.04 336 -400.08 336 -396 336 C-396 320.16 -396 304.32 -396 288 C-399.96 288 -403.92 288 -408 288 C-408 272.16 -408 256.32 -408 240 C-404.04 240 -400.08 240 -396 240 C-396 236.04 -396 232.08 -396 228 C-392.04 228 -388.08 228 -384 228 C-384 224.04 -384 220.08 -384 216 C-356.28 216 -328.56 216 -300 216 C-300 219.96 -300 223.92 -300 228 C-264.36 228 -228.72 228 -192 228 C-192 231.96 -192 235.92 -192 240 C-160.32 240 -128.64 240 -96 240 C-96 243.96 -96 247.92 -96 252 C-72.24 252 -48.48 252 -24 252 C-24 255.96 -24 259.92 -24 264 C-20.04 264 -16.08 264 -12 264 C-12 232.32 -12 200.64 -12 168 C-15.96 168 -19.92 168 -24 168 C-24 164.04 -24 160.08 -24 156 C-20.04 156 -16.08 156 -12 156 C-12 132.24 -12 108.48 -12 84 C-8.04 84 -4.08 84 0 84 C0 56.28 0 28.56 0 0 Z " fill="#DD6589" transform="translate(1131,453)"/>
<path d="M0 0 C3.96 0 7.92 0 12 0 C12 51.48 12 102.96 12 156 C8.04 156 4.08 156 0 156 C0 195.6 0 235.2 0 276 C-3.96 276 -7.92 276 -12 276 C-12 303.72 -12 331.44 -12 360 C-15.96 360 -19.92 360 -24 360 C-24 383.76 -24 407.52 -24 432 C-27.96 432 -31.92 432 -36 432 C-36 435.96 -36 439.92 -36 444 C-39.96 444 -43.92 444 -48 444 C-48 451.92 -48 459.84 -48 468 C-67.8 468 -87.6 468 -108 468 C-108 464.04 -108 460.08 -108 456 C-131.76 456 -155.52 456 -180 456 C-180 452.04 -180 448.08 -180 444 C-211.68 444 -243.36 444 -276 444 C-276 440.04 -276 436.08 -276 432 C-303.72 432 -331.44 432 -360 432 C-360 428.04 -360 424.08 -360 420 C-371.88 420 -383.76 420 -396 420 C-396 416.04 -396 412.08 -396 408 C-403.92 408 -411.84 408 -420 408 C-420 404.04 -420 400.08 -420 396 C-423.96 396 -427.92 396 -432 396 C-432 392.04 -432 388.08 -432 384 C-435.96 384 -439.92 384 -444 384 C-444 368.16 -444 352.32 -444 336 C-440.04 336 -436.08 336 -432 336 C-432 324.12 -432 312.24 -432 300 C-428.04 300 -424.08 300 -420 300 C-420 292.08 -420 284.16 -420 276 C-416.04 276 -412.08 276 -408 276 C-408 264.12 -408 252.24 -408 240 C-404.04 240 -400.08 240 -396 240 C-396 224.16 -396 208.32 -396 192 C-392.04 192 -388.08 192 -384 192 C-384 164.28 -384 136.56 -384 108 C-380.04 108 -376.08 108 -372 108 C-372 104.04 -372 100.08 -372 96 C-352.2 96 -332.4 96 -312 96 C-312 99.96 -312 103.92 -312 108 C-272.4 108 -232.8 108 -192 108 C-192 111.96 -192 115.92 -192 120 C-152.4 120 -112.8 120 -72 120 C-72 123.96 -72 127.92 -72 132 C-52.2 132 -32.4 132 -12 132 C-12 135.96 -12 139.92 -12 144 C-8.04 144 -4.08 144 0 144 C0 96.48 0 48.96 0 0 Z " fill="#F0C555" transform="translate(1143,177)"/>
<path d="M0 0 C289.08 0 578.16 0 876 0 C876 23.76 876 47.52 876 72 C872.04 72 868.08 72 864 72 C864 119.52 864 167.04 864 216 C860.04 216 856.08 216 852 216 C852 212.04 852 208.08 852 204 C832.2 204 812.4 204 792 204 C792 200.04 792 196.08 792 192 C752.4 192 712.8 192 672 192 C672 188.04 672 184.08 672 180 C632.4 180 592.8 180 552 180 C552 176.04 552 172.08 552 168 C528.24 168 504.48 168 480 168 C480 144.24 480 120.48 480 96 C476.04 96 472.08 96 468 96 C468 92.04 468 88.08 468 84 C420.48 84 372.96 84 324 84 C324 80.04 324 76.08 324 72 C268.56 72 213.12 72 156 72 C156 75.96 156 79.92 156 84 C152.04 84 148.08 84 144 84 C144 115.68 144 147.36 144 180 C140.04 180 136.08 180 132 180 C132 172.08 132 164.16 132 156 C128.04 156 124.08 156 120 156 C120 152.04 120 148.08 120 144 C116.04 144 112.08 144 108 144 C108 140.04 108 136.08 108 132 C104.04 132 100.08 132 96 132 C96 128.04 96 124.08 96 120 C92.04 120 88.08 120 84 120 C84 112.08 84 104.16 84 96 C80.04 96 76.08 96 72 96 C72 92.04 72 88.08 72 84 C68.04 84 64.08 84 60 84 C60 80.04 60 76.08 60 72 C56.04 72 52.08 72 48 72 C48 64.08 48 56.16 48 48 C44.04 48 40.08 48 36 48 C36 44.04 36 40.08 36 36 C32.04 36 28.08 36 24 36 C24 32.04 24 28.08 24 24 C20.04 24 16.08 24 12 24 C12 20.04 12 16.08 12 12 C8.04 12 4.08 12 0 12 C0 8.04 0 4.08 0 0 Z " fill="#DDB379" transform="translate(279,105)"/>
<path d="M0 0 C55.44 0 110.88 0 168 0 C168 3.96 168 7.92 168 12 C215.52 12 263.04 12 312 12 C312 15.96 312 19.92 312 24 C315.96 24 319.92 24 324 24 C324 47.76 324 71.52 324 96 C327.96 96 331.92 96 336 96 C336 99.96 336 103.92 336 108 C332.04 108 328.08 108 324 108 C324 135.72 324 163.44 324 192 C320.04 192 316.08 192 312 192 C312 207.84 312 223.68 312 240 C308.04 240 304.08 240 300 240 C300 251.88 300 263.76 300 276 C296.04 276 292.08 276 288 276 C288 283.92 288 291.84 288 300 C284.04 300 280.08 300 276 300 C276 311.88 276 323.76 276 336 C272.04 336 268.08 336 264 336 C264 347.88 264 359.76 264 372 C260.04 372 256.08 372 252 372 C252 356.16 252 340.32 252 324 C255.96 324 259.92 324 264 324 C264 316.08 264 308.16 264 300 C228.36 300 192.72 300 156 300 C156 296.04 156 292.08 156 288 C116.4 288 76.8 288 36 288 C36 284.04 36 280.08 36 276 C20.16 276 4.32 276 -12 276 C-12 272.04 -12 268.08 -12 264 C-15.96 264 -19.92 264 -24 264 C-24 260.04 -24 256.08 -24 252 C-27.96 252 -31.92 252 -36 252 C-36 236.16 -36 220.32 -36 204 C-32.04 204 -28.08 204 -24 204 C-24 180.24 -24 156.48 -24 132 C-20.04 132 -16.08 132 -12 132 C-12 92.4 -12 52.8 -12 12 C-8.04 12 -4.08 12 0 12 C0 8.04 0 4.08 0 0 Z " fill="#DD6589" transform="translate(435,177)"/>
<path d="M0 0 C23.76 0 47.52 0 72 0 C72 3.96 72 7.92 72 12 C99.72 12 127.44 12 156 12 C156 15.96 156 19.92 156 24 C183.72 24 211.44 24 240 24 C240 27.96 240 31.92 240 36 C243.96 36 247.92 36 252 36 C252 111.24 252 186.48 252 264 C244.08 264 236.16 264 228 264 C228 271.92 228 279.84 228 288 C224.04 288 220.08 288 216 288 C216 295.92 216 303.84 216 312 C192.24 312 168.48 312 144 312 C144 308.04 144 304.08 144 300 C128.16 300 112.32 300 96 300 C96 296.04 96 292.08 96 288 C76.2 288 56.4 288 36 288 C36 284.04 36 280.08 36 276 C24.12 276 12.24 276 0 276 C0 268.08 0 260.16 0 252 C-7.92 252 -15.84 252 -24 252 C-24 232.2 -24 212.4 -24 192 C-20.04 192 -16.08 192 -12 192 C-12 132.6 -12 73.2 -12 12 C-8.04 12 -4.08 12 0 12 C0 8.04 0 4.08 0 0 Z " fill="#EFC555" transform="translate(135,225)"/>
<path d="M0 0 C31.68 0 63.36 0 96 0 C96 3.96 96 7.92 96 12 C103.92 12 111.84 12 120 12 C120 15.96 120 19.92 120 24 C127.92 24 135.84 24 144 24 C144 27.96 144 31.92 144 36 C147.96 36 151.92 36 156 36 C156 39.96 156 43.92 156 48 C159.96 48 163.92 48 168 48 C168 55.92 168 63.84 168 72 C171.96 72 175.92 72 180 72 C180 75.96 180 79.92 180 84 C183.96 84 187.92 84 192 84 C192 91.92 192 99.84 192 108 C195.96 108 199.92 108 204 108 C204 119.88 204 131.76 204 144 C207.96 144 211.92 144 216 144 C216 159.84 216 175.68 216 192 C219.96 192 223.92 192 228 192 C228 207.84 228 223.68 228 240 C224.04 240 220.08 240 216 240 C216 255.84 216 271.68 216 288 C212.04 288 208.08 288 204 288 C204 319.68 204 351.36 204 384 C207.96 384 211.92 384 216 384 C216 395.88 216 407.76 216 420 C219.96 420 223.92 420 228 420 C228 427.92 228 435.84 228 444 C220.08 444 212.16 444 204 444 C204 440.04 204 436.08 204 432 C160.44 432 116.88 432 72 432 C72 424.08 72 416.16 72 408 C48.24 408 24.48 408 0 408 C0 404.04 0 400.08 0 396 C7.92 396 15.84 396 24 396 C24 392.04 24 388.08 24 384 C27.96 384 31.92 384 36 384 C36 380.04 36 376.08 36 372 C39.96 372 43.92 372 48 372 C48 368.04 48 364.08 48 360 C51.96 360 55.92 360 60 360 C60 356.04 60 352.08 60 348 C63.96 348 67.92 348 72 348 C72 344.04 72 340.08 72 336 C75.96 336 79.92 336 84 336 C84 328.08 84 320.16 84 312 C87.96 312 91.92 312 96 312 C96 304.08 96 296.16 96 288 C99.96 288 103.92 288 108 288 C108 264.24 108 240.48 108 216 C104.04 216 100.08 216 96 216 C96 204.12 96 192.24 96 180 C92.04 180 88.08 180 84 180 C84 168.12 84 156.24 84 144 C80.04 144 76.08 144 72 144 C72 140.04 72 136.08 72 132 C60.12 132 48.24 132 36 132 C36 135.96 36 139.92 36 144 C16.2 144 -3.6 144 -24 144 C-24 140.04 -24 136.08 -24 132 C-31.92 132 -39.84 132 -48 132 C-48 135.96 -48 139.92 -48 144 C-51.96 144 -55.92 144 -60 144 C-60 136.08 -60 128.16 -60 120 C-63.96 120 -67.92 120 -72 120 C-72 108.12 -72 96.24 -72 84 C-68.04 84 -64.08 84 -60 84 C-60 76.08 -60 68.16 -60 60 C-56.04 60 -52.08 60 -48 60 C-48 52.08 -48 44.16 -48 36 C-44.04 36 -40.08 36 -36 36 C-36 32.04 -36 28.08 -36 24 C-32.04 24 -28.08 24 -24 24 C-24 20.04 -24 16.08 -24 12 C-16.08 12 -8.16 12 0 12 C0 8.04 0 4.08 0 0 Z " fill="#EAE5BF" transform="translate(507,549)"/>
<path d="M0 0 C11.88 0 23.76 0 36 0 C36 3.96 36 7.92 36 12 C59.76 12 83.52 12 108 12 C108 15.96 108 19.92 108 24 C127.8 24 147.6 24 168 24 C168 27.96 168 31.92 168 36 C191.76 36 215.52 36 240 36 C240 39.96 240 43.92 240 48 C259.8 48 279.6 48 300 48 C300 51.96 300 55.92 300 60 C323.76 60 347.52 60 372 60 C372 63.96 372 67.92 372 72 C395.76 72 419.52 72 444 72 C444 75.96 444 79.92 444 84 C463.8 84 483.6 84 504 84 C504 87.96 504 91.92 504 96 C527.76 96 551.52 96 576 96 C576 99.96 576 103.92 576 108 C595.8 108 615.6 108 636 108 C636 111.96 636 115.92 636 120 C659.76 120 683.52 120 708 120 C708 123.96 708 127.92 708 132 C727.8 132 747.6 132 768 132 C768 135.96 768 139.92 768 144 C791.76 144 815.52 144 840 144 C840 147.96 840 151.92 840 156 C851.88 156 863.76 156 876 156 C876 163.92 876 171.84 876 180 C757.2 180 638.4 180 516 180 C516 176.04 516 172.08 516 168 C492.24 168 468.48 168 444 168 C444 164.04 444 160.08 444 156 C420.24 156 396.48 156 372 156 C372 152.04 372 148.08 372 144 C348.24 144 324.48 144 300 144 C300 140.04 300 136.08 300 132 C276.24 132 252.48 132 228 132 C228 128.04 228 124.08 228 120 C204.24 120 180.48 120 156 120 C156 116.04 156 112.08 156 108 C132.24 108 108.48 108 84 108 C84 104.04 84 100.08 84 96 C60.24 96 36.48 96 12 96 C12 92.04 12 88.08 12 84 C0.12 84 -11.76 84 -24 84 C-24 72.12 -24 60.24 -24 48 C-20.04 48 -16.08 48 -12 48 C-12 36.12 -12 24.24 -12 12 C-8.04 12 -4.08 12 0 12 C0 8.04 0 4.08 0 0 Z " fill="#EAE5BF" transform="translate(291,981)"/>
<path d="M0 0 C3.96 0 7.92 0 12 0 C12 11.88 12 23.76 12 36 C15.96 36 19.92 36 24 36 C24 43.92 24 51.84 24 60 C27.96 60 31.92 60 36 60 C36 56.04 36 52.08 36 48 C43.92 48 51.84 48 60 48 C60 51.96 60 55.92 60 60 C79.8 60 99.6 60 120 60 C120 56.04 120 52.08 120 48 C131.88 48 143.76 48 156 48 C156 51.96 156 55.92 156 60 C159.96 60 163.92 60 168 60 C168 71.88 168 83.76 168 96 C171.96 96 175.92 96 180 96 C180 107.88 180 119.76 180 132 C183.96 132 187.92 132 192 132 C192 155.76 192 179.52 192 204 C188.04 204 184.08 204 180 204 C180 211.92 180 219.84 180 228 C176.04 228 172.08 228 168 228 C168 235.92 168 243.84 168 252 C164.04 252 160.08 252 156 252 C156 255.96 156 259.92 156 264 C152.04 264 148.08 264 144 264 C144 267.96 144 271.92 144 276 C140.04 276 136.08 276 132 276 C132 279.96 132 283.92 132 288 C128.04 288 124.08 288 120 288 C120 291.96 120 295.92 120 300 C116.04 300 112.08 300 108 300 C108 303.96 108 307.92 108 312 C100.08 312 92.16 312 84 312 C84 315.96 84 319.92 84 324 C60.24 324 36.48 324 12 324 C12 320.04 12 316.08 12 312 C-15.72 312 -43.44 312 -72 312 C-72 315.96 -72 319.92 -72 324 C-75.96 324 -79.92 324 -84 324 C-84 327.96 -84 331.92 -84 336 C-87.96 336 -91.92 336 -96 336 C-96 339.96 -96 343.92 -96 348 C-107.88 348 -119.76 348 -132 348 C-132 351.96 -132 355.92 -132 360 C-135.96 360 -139.92 360 -144 360 C-144 348.12 -144 336.24 -144 324 C-140.04 324 -136.08 324 -132 324 C-132 292.32 -132 260.64 -132 228 C-112.2 228 -92.4 228 -72 228 C-72 231.96 -72 235.92 -72 240 C-87.84 240 -103.68 240 -120 240 C-120 251.88 -120 263.76 -120 276 C-112.08 276 -104.16 276 -96 276 C-96 279.96 -96 283.92 -96 288 C-84.12 288 -72.24 288 -60 288 C-60 291.96 -60 295.92 -60 300 C-36.24 300 -12.48 300 12 300 C12 296.04 12 292.08 12 288 C8.04 288 4.08 288 0 288 C0 272.16 0 256.32 0 240 C3.96 240 7.92 240 12 240 C12 232.08 12 224.16 12 216 C0.12 216 -11.76 216 -24 216 C-24 212.04 -24 208.08 -24 204 C-27.96 204 -31.92 204 -36 204 C-36 200.04 -36 196.08 -36 192 C-39.96 192 -43.92 192 -48 192 C-48 184.08 -48 176.16 -48 168 C-44.04 168 -40.08 168 -36 168 C-36 164.04 -36 160.08 -36 156 C-32.04 156 -28.08 156 -24 156 C-24 152.04 -24 148.08 -24 144 C-20.04 144 -16.08 144 -12 144 C-12 136.08 -12 128.16 -12 120 C-8.04 120 -4.08 120 0 120 C0 80.4 0 40.8 0 0 Z " fill="#F5A863" transform="translate(423,633)"/>
<path d="M0 0 C7.92 0 15.84 0 24 0 C24 3.96 24 7.92 24 12 C59.64 12 95.28 12 132 12 C132 19.92 132 27.84 132 36 C128.04 36 124.08 36 120 36 C120 51.84 120 67.68 120 84 C123.96 84 127.92 84 132 84 C132 87.96 132 91.92 132 96 C135.96 96 139.92 96 144 96 C144 99.96 144 103.92 144 108 C147.96 108 151.92 108 156 108 C156 111.96 156 115.92 156 120 C163.92 120 171.84 120 180 120 C180 123.96 180 127.92 180 132 C191.88 132 203.76 132 216 132 C216 135.96 216 139.92 216 144 C243.72 144 271.44 144 300 144 C300 147.96 300 151.92 300 156 C331.68 156 363.36 156 396 156 C396 159.96 396 163.92 396 168 C419.76 168 443.52 168 468 168 C468 171.96 468 175.92 468 180 C487.8 180 507.6 180 528 180 C528 172.08 528 164.16 528 156 C535.92 156 543.84 156 552 156 C552 187.68 552 219.36 552 252 C548.04 252 544.08 252 540 252 C540 248.04 540 244.08 540 240 C516.24 240 492.48 240 468 240 C468 236.04 468 232.08 468 228 C436.32 228 404.64 228 372 228 C372 224.04 372 220.08 372 216 C336.36 216 300.72 216 264 216 C264 212.04 264 208.08 264 204 C236.28 204 208.56 204 180 204 C180 207.96 180 211.92 180 216 C176.04 216 172.08 216 168 216 C168 219.96 168 223.92 168 228 C160.08 228 152.16 228 144 228 C144 216.12 144 204.24 144 192 C140.04 192 136.08 192 132 192 C132 184.08 132 176.16 132 168 C128.04 168 124.08 168 120 168 C120 164.04 120 160.08 120 156 C116.04 156 112.08 156 108 156 C108 148.08 108 140.16 108 132 C104.04 132 100.08 132 96 132 C96 128.04 96 124.08 96 120 C92.04 120 88.08 120 84 120 C84 116.04 84 112.08 84 108 C76.08 108 68.16 108 60 108 C60 96.12 60 84.24 60 72 C56.04 72 52.08 72 48 72 C48 68.04 48 64.08 48 60 C44.04 60 40.08 60 36 60 C36 56.04 36 52.08 36 48 C32.04 48 28.08 48 24 48 C24 40.08 24 32.16 24 24 C20.04 24 16.08 24 12 24 C12 20.04 12 16.08 12 12 C8.04 12 4.08 12 0 12 C0 8.04 0 4.08 0 0 Z " fill="#E7C88F" transform="translate(567,465)"/>
<path d="M0 0 C3.96 0 7.92 0 12 0 C12 11.88 12 23.76 12 36 C23.88 36 35.76 36 48 36 C48 39.96 48 43.92 48 48 C71.76 48 95.52 48 120 48 C120 51.96 120 55.92 120 60 C143.76 60 167.52 60 192 60 C192 63.96 192 67.92 192 72 C215.76 72 239.52 72 264 72 C264 75.96 264 79.92 264 84 C287.76 84 311.52 84 336 84 C336 87.96 336 91.92 336 96 C359.76 96 383.52 96 408 96 C408 99.96 408 103.92 408 108 C431.76 108 455.52 108 480 108 C480 111.96 480 115.92 480 120 C503.76 120 527.52 120 552 120 C552 123.96 552 127.92 552 132 C441.12 132 330.24 132 216 132 C216 128.04 216 124.08 216 120 C212.04 120 208.08 120 204 120 C204 116.04 204 112.08 204 108 C200.04 108 196.08 108 192 108 C192 104.04 192 100.08 192 96 C188.04 96 184.08 96 180 96 C180 92.04 180 88.08 180 84 C172.08 84 164.16 84 156 84 C156 80.04 156 76.08 156 72 C128.28 72 100.56 72 72 72 C72 75.96 72 79.92 72 84 C68.04 84 64.08 84 60 84 C60 87.96 60 91.92 60 96 C56.04 96 52.08 96 48 96 C48 107.88 48 119.76 48 132 C24.24 132 0.48 132 -24 132 C-24 116.16 -24 100.32 -24 84 C-20.04 84 -16.08 84 -12 84 C-12 72.12 -12 60.24 -12 48 C-8.04 48 -4.08 48 0 48 C0 32.16 0 16.32 0 0 Z " fill="#C3B4AD" transform="translate(255,1029)"/>
<path d="M0 0 C19.8 0 39.6 0 60 0 C60 3.96 60 7.92 60 12 C91.68 12 123.36 12 156 12 C156 15.96 156 19.92 156 24 C179.76 24 203.52 24 228 24 C228 27.96 228 31.92 228 36 C247.8 36 267.6 36 288 36 C288 28.08 288 20.16 288 12 C295.92 12 303.84 12 312 12 C312 43.68 312 75.36 312 108 C308.04 108 304.08 108 300 108 C300 104.04 300 100.08 300 96 C276.24 96 252.48 96 228 96 C228 92.04 228 88.08 228 84 C196.32 84 164.64 84 132 84 C132 80.04 132 76.08 132 72 C104.28 72 76.56 72 48 72 C48 68.04 48 64.08 48 60 C44.04 60 40.08 60 36 60 C36 56.04 36 52.08 36 48 C32.04 48 28.08 48 24 48 C24 44.04 24 40.08 24 36 C20.04 36 16.08 36 12 36 C12 28.08 12 20.16 12 12 C8.04 12 4.08 12 0 12 C0 8.04 0 4.08 0 0 Z " fill="#DDB379" transform="translate(807,609)"/>
<path d="M0 0 C3.96 0 7.92 0 12 0 C12 3.96 12 7.92 12 12 C15.96 12 19.92 12 24 12 C24 15.96 24 19.92 24 24 C35.88 24 47.76 24 60 24 C60 27.96 60 31.92 60 36 C75.84 36 91.68 36 108 36 C108 39.96 108 43.92 108 48 C135.72 48 163.44 48 192 48 C192 51.96 192 55.92 192 60 C207.84 60 223.68 60 240 60 C240 63.96 240 67.92 240 72 C243.96 72 247.92 72 252 72 C252 75.96 252 79.92 252 84 C255.96 84 259.92 84 264 84 C264 91.92 264 99.84 264 108 C267.96 108 271.92 108 276 108 C276 115.92 276 123.84 276 132 C252.24 132 228.48 132 204 132 C204 128.04 204 124.08 204 120 C180.24 120 156.48 120 132 120 C132 116.04 132 112.08 132 108 C108.24 108 84.48 108 60 108 C60 104.04 60 100.08 60 96 C36.24 96 12.48 96 -12 96 C-12 92.04 -12 88.08 -12 84 C-4.08 84 3.84 84 12 84 C12 76.08 12 68.16 12 60 C8.04 60 4.08 60 0 60 C0 40.2 0 20.4 0 0 Z " fill="#DDB379" transform="translate(723,909)"/>
<path d="M0 0 C7.92 0 15.84 0 24 0 C24 3.96 24 7.92 24 12 C31.92 12 39.84 12 48 12 C48 19.92 48 27.84 48 36 C51.96 36 55.92 36 60 36 C60 39.96 60 43.92 60 48 C63.96 48 67.92 48 72 48 C72 55.92 72 63.84 72 72 C75.96 72 79.92 72 84 72 C84 79.92 84 87.84 84 96 C87.96 96 91.92 96 96 96 C96 99.96 96 103.92 96 108 C99.96 108 103.92 108 108 108 C108 115.92 108 123.84 108 132 C111.96 132 115.92 132 120 132 C120 139.92 120 147.84 120 156 C123.96 156 127.92 156 132 156 C132 159.96 132 163.92 132 168 C135.96 168 139.92 168 144 168 C144 175.92 144 183.84 144 192 C147.96 192 151.92 192 156 192 C156 199.92 156 207.84 156 216 C159.96 216 163.92 216 168 216 C168 219.96 168 223.92 168 228 C171.96 228 175.92 228 180 228 C180 235.92 180 243.84 180 252 C183.96 252 187.92 252 192 252 C192 255.96 192 259.92 192 264 C195.96 264 199.92 264 204 264 C204 271.92 204 279.84 204 288 C207.96 288 211.92 288 216 288 C216 295.59 216 303.18 216 311 C212.37 311 208.74 311 205 311 C205 307.37 205 303.74 205 300 C200.71 300 196.42 300 192 300 C192 296.04 192 292.08 192 288 C188.04 288 184.08 288 180 288 C180 284.04 180 280.08 180 276 C176.04 276 172.08 276 168 276 C168 268.08 168 260.16 168 252 C160.08 252 152.16 252 144 252 C144 244.08 144 236.16 144 228 C140.04 228 136.08 228 132 228 C132 224.04 132 220.08 132 216 C128.04 216 124.08 216 120 216 C120 212.04 120 208.08 120 204 C116.04 204 112.08 204 108 204 C108 200.04 108 196.08 108 192 C104.04 192 100.08 192 96 192 C96 188.04 96 184.08 96 180 C88.08 180 80.16 180 72 180 C72 172.08 72 164.16 72 156 C48.24 156 24.48 156 0 156 C0 104.52 0 53.04 0 0 Z " fill="#E7C88F" transform="translate(111,489)"/>
<path d="M0 0 C39.6 0 79.2 0 120 0 C120 3.96 120 7.92 120 12 C123.96 12 127.92 12 132 12 C132 15.96 132 19.92 132 24 C135.96 24 139.92 24 144 24 C144 27.96 144 31.92 144 36 C147.96 36 151.92 36 156 36 C156 39.96 156 43.92 156 48 C159.96 48 163.92 48 168 48 C168 51.96 168 55.92 168 60 C171.96 60 175.92 60 180 60 C180 63.96 180 67.92 180 72 C172.08 72 164.16 72 156 72 C156 75.96 156 79.92 156 84 C152.04 84 148.08 84 144 84 C144 115.68 144 147.36 144 180 C140.04 180 136.08 180 132 180 C132 172.08 132 164.16 132 156 C128.04 156 124.08 156 120 156 C120 152.04 120 148.08 120 144 C116.04 144 112.08 144 108 144 C108 140.04 108 136.08 108 132 C104.04 132 100.08 132 96 132 C96 128.04 96 124.08 96 120 C92.04 120 88.08 120 84 120 C84 112.08 84 104.16 84 96 C80.04 96 76.08 96 72 96 C72 92.04 72 88.08 72 84 C68.04 84 64.08 84 60 84 C60 80.04 60 76.08 60 72 C56.04 72 52.08 72 48 72 C48 64.08 48 56.16 48 48 C44.04 48 40.08 48 36 48 C36 44.04 36 40.08 36 36 C32.04 36 28.08 36 24 36 C24 32.04 24 28.08 24 24 C20.04 24 16.08 24 12 24 C12 20.04 12 16.08 12 12 C8.04 12 4.08 12 0 12 C0 8.04 0 4.08 0 0 Z " fill="#E7C88F" transform="translate(279,105)"/>
<path d="M0 0 C3.96 0 7.92 0 12 0 C12 7.92 12 15.84 12 24 C8.04 24 4.08 24 0 24 C0 31.92 0 39.84 0 48 C-3.96 48 -7.92 48 -12 48 C-12 55.92 -12 63.84 -12 72 C-15.96 72 -19.92 72 -24 72 C-24 75.96 -24 79.92 -24 84 C-27.96 84 -31.92 84 -36 84 C-36 87.96 -36 91.92 -36 96 C-43.92 96 -51.84 96 -60 96 C-60 99.96 -60 103.92 -60 108 C-83.76 108 -107.52 108 -132 108 C-132 104.04 -132 100.08 -132 96 C-135.96 96 -139.92 96 -144 96 C-144 103.92 -144 111.84 -144 120 C-147.96 120 -151.92 120 -156 120 C-156 104.16 -156 88.32 -156 72 C-152.04 72 -148.08 72 -144 72 C-144 64.08 -144 56.16 -144 48 C-155.88 48 -167.76 48 -180 48 C-180 44.04 -180 40.08 -180 36 C-183.96 36 -187.92 36 -192 36 C-192 32.04 -192 28.08 -192 24 C-187.71 24 -183.42 24 -179 24 C-179 27.63 -179 31.26 -179 35 C-136.1 35 -93.2 35 -49 35 C-49 31.37 -49 27.74 -49 24 C-40.75 24 -32.5 24 -24 24 C-24 20.04 -24 16.08 -24 12 C-16.08 12 -8.16 12 0 12 C0 8.04 0 4.08 0 0 Z " fill="#AA7E75" transform="translate(579,801)"/>
<path d="M0 0 C23.76 0 47.52 0 72 0 C72 35.64 72 71.28 72 108 C68.04 108 64.08 108 60 108 C60 111.96 60 115.92 60 120 C48.12 120 36.24 120 24 120 C24 123.96 24 127.92 24 132 C20.04 132 16.08 132 12 132 C12 167.64 12 203.28 12 240 C8.04 240 4.08 240 0 240 C0 160.8 0 81.6 0 0 Z " fill="#EAE5BF" transform="translate(111,105)"/>
<path d="M0 0 C11.88 0 23.76 0 36 0 C36 3.96 36 7.92 36 12 C67.68 12 99.36 12 132 12 C132 8.04 132 4.08 132 0 C135.96 0 139.92 0 144 0 C144 27.72 144 55.44 144 84 C108.36 84 72.72 84 36 84 C36 72.12 36 60.24 36 48 C32.04 48 28.08 48 24 48 C24 40.08 24 32.16 24 24 C20.04 24 16.08 24 12 24 C12 20.04 12 16.08 12 12 C8.04 12 4.08 12 0 12 C0 8.04 0 4.08 0 0 Z " fill="#E7C88F" transform="translate(963,969)"/>
<path d="M0 0 C3.96 0 7.92 0 12 0 C12 3.96 12 7.92 12 12 C15.96 12 19.92 12 24 12 C24 15.96 24 19.92 24 24 C35.88 24 47.76 24 60 24 C60 31.92 60 39.84 60 48 C56.04 48 52.08 48 48 48 C48 63.84 48 79.68 48 96 C51.96 96 55.92 96 60 96 C60 99.96 60 103.92 60 108 C36.24 108 12.48 108 -12 108 C-12 104.04 -12 100.08 -12 96 C-23.88 96 -35.76 96 -48 96 C-48 92.04 -48 88.08 -48 84 C-55.92 84 -63.84 84 -72 84 C-72 72.12 -72 60.24 -72 48 C-56.16 48 -40.32 48 -24 48 C-24 44.04 -24 40.08 -24 36 C-20.04 36 -16.08 36 -12 36 C-12 32.04 -12 28.08 -12 24 C-8.04 24 -4.08 24 0 24 C0 16.08 0 8.16 0 0 Z " fill="#E7C88F" transform="translate(375,825)"/>
<path d="M0 0 C19.8 0 39.6 0 60 0 C60 3.96 60 7.92 60 12 C44.16 12 28.32 12 12 12 C12 23.88 12 35.76 12 48 C19.92 48 27.84 48 36 48 C36 51.96 36 55.92 36 60 C47.88 60 59.76 60 72 60 C72 63.96 72 67.92 72 72 C95.76 72 119.52 72 144 72 C144 68.04 144 64.08 144 60 C147.96 60 151.92 60 156 60 C156 63.96 156 67.92 156 72 C183.72 72 211.44 72 240 72 C240 75.96 240 79.92 240 84 C232.08 84 224.16 84 216 84 C216 87.96 216 91.92 216 96 C192.24 96 168.48 96 144 96 C144 92.04 144 88.08 144 84 C116.28 84 88.56 84 60 84 C60 87.96 60 91.92 60 96 C56.04 96 52.08 96 48 96 C48 99.96 48 103.92 48 108 C44.04 108 40.08 108 36 108 C36 111.96 36 115.92 36 120 C24.12 120 12.24 120 0 120 C0 123.96 0 127.92 0 132 C-3.96 132 -7.92 132 -12 132 C-12 120.12 -12 108.24 -12 96 C-8.04 96 -4.08 96 0 96 C0 64.32 0 32.64 0 0 Z " fill="#F4A863" transform="translate(291,861)"/>
<path d="M0 0 C27.72 0 55.44 0 84 0 C84 3.96 84 7.92 84 12 C91.92 12 99.84 12 108 12 C108 15.96 108 19.92 108 24 C111.96 24 115.92 24 120 24 C120 27.96 120 31.92 120 36 C123.96 36 127.92 36 132 36 C132 43.92 132 51.84 132 60 C100.32 60 68.64 60 36 60 C36 56.04 36 52.08 36 48 C20.16 48 4.32 48 -12 48 C-12 36.12 -12 24.24 -12 12 C-8.04 12 -4.08 12 0 12 C0 8.04 0 4.08 0 0 Z " fill="#6B7A8D" transform="translate(327,1101)"/>
<path d="M0 0 C7.92 0 15.84 0 24 0 C24 3.96 24 7.92 24 12 C31.92 12 39.84 12 48 12 C48 39.72 48 67.44 48 96 C44.04 96 40.08 96 36 96 C36 115.8 36 135.6 36 156 C24.12 156 12.24 156 0 156 C0 104.52 0 53.04 0 0 Z " fill="#EAE5BF" transform="translate(111,489)"/>
<path d="M0 0 C3.96 0 7.92 0 12 0 C12 7.92 12 15.84 12 24 C15.96 24 19.92 24 24 24 C24 27.96 24 31.92 24 36 C27.96 36 31.92 36 36 36 C36 39.96 36 43.92 36 48 C39.96 48 43.92 48 48 48 C48 51.96 48 55.92 48 60 C55.92 60 63.84 60 72 60 C72 63.96 72 67.92 72 72 C79.92 72 87.84 72 96 72 C96 75.96 96 79.92 96 84 C99.96 84 103.92 84 108 84 C108 91.92 108 99.84 108 108 C104.04 108 100.08 108 96 108 C96 111.96 96 115.92 96 120 C72.24 120 48.48 120 24 120 C24 108.12 24 96.24 24 84 C20.04 84 16.08 84 12 84 C12 72.12 12 60.24 12 48 C8.04 48 4.08 48 0 48 C0 32.16 0 16.32 0 0 Z " fill="#F4A863" transform="translate(267,741)"/>
<path d="M0 0 C11.88 0 23.76 0 36 0 C36 3.96 36 7.92 36 12 C39.96 12 43.92 12 48 12 C48 31.8 48 51.6 48 72 C44.04 72 40.08 72 36 72 C36 75.96 36 79.92 36 84 C24.12 84 12.24 84 0 84 C0 80.04 0 76.08 0 72 C-3.96 72 -7.92 72 -12 72 C-12 52.2 -12 32.4 -12 12 C-8.04 12 -4.08 12 0 12 C0 8.04 0 4.08 0 0 Z " fill="#474656" transform="translate(207,789)"/>
<path d="M0 0 C3.96 0 7.92 0 12 0 C12 55.44 12 110.88 12 168 C8.04 168 4.08 168 0 168 C0 203.64 0 239.28 0 276 C-3.96 276 -7.92 276 -12 276 C-12 240.36 -12 204.72 -12 168 C-15.96 168 -19.92 168 -24 168 C-24 164.04 -24 160.08 -24 156 C-20.04 156 -16.08 156 -12 156 C-12 132.24 -12 108.48 -12 84 C-8.04 84 -4.08 84 0 84 C0 56.28 0 28.56 0 0 Z " fill="#484756" transform="translate(1131,453)"/>
<path d="M0 0 C15.84 0 31.68 0 48 0 C48 3.96 48 7.92 48 12 C51.96 12 55.92 12 60 12 C60 23.88 60 35.76 60 48 C56.04 48 52.08 48 48 48 C48 51.96 48 55.92 48 60 C51.96 60 55.92 60 60 60 C60 67.92 60 75.84 60 84 C52.08 84 44.16 84 36 84 C36 76.08 36 68.16 36 60 C32.04 60 28.08 60 24 60 C24 67.92 24 75.84 24 84 C16.08 84 8.16 84 0 84 C0 56.28 0 28.56 0 0 Z " fill="#484655" transform="translate(891,405)"/>
<path d="M0 0 C11.88 0 23.76 0 36 0 C36 3.96 36 7.92 36 12 C39.96 12 43.92 12 48 12 C48 35.76 48 59.52 48 84 C40.08 84 32.16 84 24 84 C24 76.08 24 68.16 24 60 C20.04 60 16.08 60 12 60 C12 67.92 12 75.84 12 84 C4.08 84 -3.84 84 -12 84 C-12 60.24 -12 36.48 -12 12 C-8.04 12 -4.08 12 0 12 C0 8.04 0 4.08 0 0 Z " fill="#484655" transform="translate(831,393)"/>
<path d="M0 0 C11.88 0 23.76 0 36 0 C36 3.96 36 7.92 36 12 C43.92 12 51.84 12 60 12 C60 35.76 60 59.52 60 84 C48.12 84 36.24 84 24 84 C24 80.04 24 76.08 24 72 C16.08 72 8.16 72 0 72 C0 48.24 0 24.48 0 0 Z " fill="#484755" transform="translate(219,261)"/>
<path d="M0 0 C19.8 0 39.6 0 60 0 C60 23.76 60 47.52 60 72 C40.2 72 20.4 72 0 72 C0 48.24 0 24.48 0 0 Z " fill="#484756" transform="translate(891,321)"/>
<path d="M0 0 C3.96 0 7.92 0 12 0 C12 3.96 12 7.92 12 12 C15.96 12 19.92 12 24 12 C24 15.96 24 19.92 24 24 C35.88 24 47.76 24 60 24 C60 31.92 60 39.84 60 48 C56.04 48 52.08 48 48 48 C48 63.84 48 79.68 48 96 C51.96 96 55.92 96 60 96 C60 99.96 60 103.92 60 108 C52.08 108 44.16 108 36 108 C36 104.04 36 100.08 36 96 C32.04 96 28.08 96 24 96 C24 88.08 24 80.16 24 72 C20.04 72 16.08 72 12 72 C12 64.08 12 56.16 12 48 C8.04 48 4.08 48 0 48 C0 44.04 0 40.08 0 36 C-3.96 36 -7.92 36 -12 36 C-12 32.04 -12 28.08 -12 24 C-8.04 24 -4.08 24 0 24 C0 16.08 0 8.16 0 0 Z " fill="#DDB379" transform="translate(375,825)"/>
<path d="M0 0 C11.88 0 23.76 0 36 0 C36 3.96 36 7.92 36 12 C59.76 12 83.52 12 108 12 C108 8.04 108 4.08 108 0 C111.96 0 115.92 0 120 0 C120 3.96 120 7.92 120 12 C147.72 12 175.44 12 204 12 C204 15.96 204 19.92 204 24 C196.08 24 188.16 24 180 24 C180 27.96 180 31.92 180 36 C156.24 36 132.48 36 108 36 C108 32.04 108 28.08 108 24 C80.28 24 52.56 24 24 24 C24 20.04 24 16.08 24 12 C16.08 12 8.16 12 0 12 C0 8.04 0 4.08 0 0 Z " fill="#484756" transform="translate(327,921)"/>
<path d="M0 0 C7.92 0 15.84 0 24 0 C24 19.8 24 39.6 24 60 C27.96 60 31.92 60 36 60 C36 40.2 36 20.4 36 0 C43.92 0 51.84 0 60 0 C60 23.76 60 47.52 60 72 C40.2 72 20.4 72 0 72 C0 48.24 0 24.48 0 0 Z " fill="#484756" transform="translate(963,333)"/>
<path d="M0 0 C11.88 0 23.76 0 36 0 C36 3.96 36 7.92 36 12 C39.96 12 43.92 12 48 12 C48 19.92 48 27.84 48 36 C44.04 36 40.08 36 36 36 C36 39.96 36 43.92 36 48 C39.96 48 43.92 48 48 48 C48 55.92 48 63.84 48 72 C44.04 72 40.08 72 36 72 C36 75.96 36 79.92 36 84 C24.12 84 12.24 84 0 84 C0 56.28 0 28.56 0 0 Z " fill="#484656" transform="translate(483,273)"/>
<path d="M0 0 C7.92 0 15.84 0 24 0 C24 19.8 24 39.6 24 60 C27.96 60 31.92 60 36 60 C36 40.2 36 20.4 36 0 C43.92 0 51.84 0 60 0 C60 23.76 60 47.52 60 72 C40.2 72 20.4 72 0 72 C0 48.24 0 24.48 0 0 Z " fill="#484755" transform="translate(291,273)"/>
<path d="M0 0 C27.72 0 55.44 0 84 0 C84 7.92 84 15.84 84 24 C80.04 24 76.08 24 72 24 C72 31.92 72 39.84 72 48 C64.08 48 56.16 48 48 48 C48 44.04 48 40.08 48 36 C32.16 36 16.32 36 0 36 C0 24.12 0 12.24 0 0 Z " fill="#7E94A2" transform="translate(315,1113)"/>
<path d="M0 0 C7.92 0 15.84 0 24 0 C24 7.92 24 15.84 24 24 C27.96 24 31.92 24 36 24 C36 16.08 36 8.16 36 0 C43.92 0 51.84 0 60 0 C60 11.88 60 23.76 60 36 C56.04 36 52.08 36 48 36 C48 47.88 48 59.76 48 72 C36.12 72 24.24 72 12 72 C12 60.12 12 48.24 12 36 C8.04 36 4.08 36 0 36 C0 24.12 0 12.24 0 0 Z " fill="#484755" transform="translate(819,309)"/>
<path d="M0 0 C7.92 0 15.84 0 24 0 C24 7.92 24 15.84 24 24 C27.96 24 31.92 24 36 24 C36 16.08 36 8.16 36 0 C43.92 0 51.84 0 60 0 C60 11.88 60 23.76 60 36 C56.04 36 52.08 36 48 36 C48 47.88 48 59.76 48 72 C36.12 72 24.24 72 12 72 C12 60.12 12 48.24 12 36 C8.04 36 4.08 36 0 36 C0 24.12 0 12.24 0 0 Z " fill="#484755" transform="translate(147,261)"/>
<path d="M0 0 C7.92 0 15.84 0 24 0 C24 3.96 24 7.92 24 12 C27.96 12 31.92 12 36 12 C36 27.84 36 43.68 36 60 C32.04 60 28.08 60 24 60 C24 63.96 24 67.92 24 72 C16.08 72 8.16 72 0 72 C0 68.04 0 64.08 0 60 C-3.96 60 -7.92 60 -12 60 C-12 44.16 -12 28.32 -12 12 C-8.04 12 -4.08 12 0 12 C0 8.04 0 4.08 0 0 Z " fill="#484756" transform="translate(639,693)"/>
<path d="M0 0 C7.92 0 15.84 0 24 0 C24 7.92 24 15.84 24 24 C20.04 24 16.08 24 12 24 C12 35.88 12 47.76 12 60 C8.04 60 4.08 60 0 60 C0 71.88 0 83.76 0 96 C-3.96 96 -7.92 96 -12 96 C-12 80.16 -12 64.32 -12 48 C-8.04 48 -4.08 48 0 48 C0 40.08 0 32.16 0 24 C-35.64 24 -71.28 24 -108 24 C-108 20.04 -108 16.08 -108 12 C-72.36 12 -36.72 12 0 12 C0 8.04 0 4.08 0 0 Z " fill="#494756" transform="translate(699,453)"/>
<path d="M0 0 C11.88 0 23.76 0 36 0 C36 7.92 36 15.84 36 24 C32.04 24 28.08 24 24 24 C24 27.96 24 31.92 24 36 C27.96 36 31.92 36 36 36 C36 39.96 36 43.92 36 48 C32.04 48 28.08 48 24 48 C24 51.96 24 55.92 24 60 C27.96 60 31.92 60 36 60 C36 67.92 36 75.84 36 84 C24.12 84 12.24 84 0 84 C0 56.28 0 28.56 0 0 Z " fill="#484755" transform="translate(963,417)"/>
<path d="M0 0 C11.88 0 23.76 0 36 0 C36 7.92 36 15.84 36 24 C32.04 24 28.08 24 24 24 C24 27.96 24 31.92 24 36 C27.96 36 31.92 36 36 36 C36 39.96 36 43.92 36 48 C32.04 48 28.08 48 24 48 C24 51.96 24 55.92 24 60 C27.96 60 31.92 60 36 60 C36 67.92 36 75.84 36 84 C24.12 84 12.24 84 0 84 C0 56.28 0 28.56 0 0 Z " fill="#484656" transform="translate(543,273)"/>
<path d="M0 0 C15.84 0 31.68 0 48 0 C48 7.92 48 15.84 48 24 C44.04 24 40.08 24 36 24 C36 43.8 36 63.6 36 84 C28.08 84 20.16 84 12 84 C12 64.2 12 44.4 12 24 C8.04 24 4.08 24 0 24 C0 16.08 0 8.16 0 0 Z " fill="#484656" transform="translate(651,285)"/>
<path d="M0 0 C7.92 0 15.84 0 24 0 C24 3.96 24 7.92 24 12 C27.96 12 31.92 12 36 12 C36 15.96 36 19.92 36 24 C28.08 24 20.16 24 12 24 C12 27.96 12 31.92 12 36 C15.96 36 19.92 36 24 36 C24 39.96 24 43.92 24 48 C27.96 48 31.92 48 36 48 C36 55.92 36 63.84 36 72 C32.04 72 28.08 72 24 72 C24 75.96 24 79.92 24 84 C16.08 84 8.16 84 0 84 C0 80.04 0 76.08 0 72 C-3.96 72 -7.92 72 -12 72 C-12 68.04 -12 64.08 -12 60 C-4.08 60 3.84 60 12 60 C12 56.04 12 52.08 12 48 C8.04 48 4.08 48 0 48 C0 44.04 0 40.08 0 36 C-3.96 36 -7.92 36 -12 36 C-12 28.08 -12 20.16 -12 12 C-8.04 12 -4.08 12 0 12 C0 8.04 0 4.08 0 0 Z " fill="#484656" transform="translate(603,285)"/>
<path d="M0 0 C4.29 0 8.58 0 13 0 C13 3.63 13 7.26 13 11 C55.9 11 98.8 11 143 11 C143 7.37 143 3.74 143 0 C151.25 0 159.5 0 168 0 C168 3.96 168 7.92 168 12 C160.08 12 152.16 12 144 12 C144 15.96 144 19.92 144 24 C116.28 24 88.56 24 60 24 C60 31.92 60 39.84 60 48 C56.04 48 52.08 48 48 48 C48 40.08 48 32.16 48 24 C36.12 24 24.24 24 12 24 C12 20.04 12 16.08 12 12 C8.04 12 4.08 12 0 12 C0 8.04 0 4.08 0 0 Z " fill="#494756" transform="translate(387,825)"/>
<path d="M0 0 C3.96 0 7.92 0 12 0 C12 43.56 12 87.12 12 132 C-3.84 132 -19.68 132 -36 132 C-36 128.04 -36 124.08 -36 120 C-24.12 120 -12.24 120 0 120 C0 92.28 0 64.56 0 36 C-3.96 36 -7.92 36 -12 36 C-12 32.04 -12 28.08 -12 24 C-8.04 24 -4.08 24 0 24 C0 16.08 0 8.16 0 0 Z " fill="#494757" transform="translate(1107,933)"/>
<path d="M0 0 C11.88 0 23.76 0 36 0 C36 19.8 36 39.6 36 60 C24.12 60 12.24 60 0 60 C0 40.2 0 20.4 0 0 Z " fill="#494656" transform="translate(855,717)"/>
<path d="M0 0 C3.96 0 7.92 0 12 0 C12 11.88 12 23.76 12 36 C15.96 36 19.92 36 24 36 C24 55.8 24 75.6 24 96 C20.04 96 16.08 96 12 96 C12 103.92 12 111.84 12 120 C8.04 120 4.08 120 0 120 C0 80.4 0 40.8 0 0 Z " fill="#484756" transform="translate(423,633)"/>
<path d="M0 0 C11.88 0 23.76 0 36 0 C36 19.8 36 39.6 36 60 C24.12 60 12.24 60 0 60 C0 40.2 0 20.4 0 0 Z " fill="#494755" transform="translate(963,513)"/>
<path d="M0 0 C11.88 0 23.76 0 36 0 C36 19.8 36 39.6 36 60 C24.12 60 12.24 60 0 60 C0 40.2 0 20.4 0 0 Z " fill="#494755" transform="translate(207,429)"/>
<path d="M0 0 C19.8 0 39.6 0 60 0 C60 3.96 60 7.92 60 12 C63.96 12 67.92 12 72 12 C72 19.92 72 27.84 72 36 C56.16 36 40.32 36 24 36 C24 32.04 24 28.08 24 24 C16.08 24 8.16 24 0 24 C0 16.08 0 8.16 0 0 Z " fill="#E7C88F" transform="translate(927,261)"/>
<path d="M0 0 C11.88 0 23.76 0 36 0 C36 19.8 36 39.6 36 60 C24.12 60 12.24 60 0 60 C0 40.2 0 20.4 0 0 Z " fill="#494656" transform="translate(603,213)"/>
<path d="M0 0 C23.76 0 47.52 0 72 0 C72 11.88 72 23.76 72 36 C64.08 36 56.16 36 48 36 C48 32.04 48 28.08 48 24 C28.2 24 8.4 24 -12 24 C-12 20.04 -12 16.08 -12 12 C-8.04 12 -4.08 12 0 12 C0 8.04 0 4.08 0 0 Z " fill="#E7C88F" transform="translate(555,153)"/>
<path d="M0 0 C7.92 0 15.84 0 24 0 C24 3.96 24 7.92 24 12 C27.96 12 31.92 12 36 12 C36 23.88 36 35.76 36 48 C32.04 48 28.08 48 24 48 C24 51.96 24 55.92 24 60 C16.08 60 8.16 60 0 60 C0 40.2 0 20.4 0 0 Z " fill="#494656" transform="translate(939,861)"/>
<path d="M0 0 C11.88 0 23.76 0 36 0 C36 19.8 36 39.6 36 60 C32.04 60 28.08 60 24 60 C24 52.08 24 44.16 24 36 C20.04 36 16.08 36 12 36 C12 43.92 12 51.84 12 60 C8.04 60 4.08 60 0 60 C0 40.2 0 20.4 0 0 Z " fill="#494656" transform="translate(951,729)"/>
<path d="M0 0 C7.92 0 15.84 0 24 0 C24 3.96 24 7.92 24 12 C27.96 12 31.92 12 36 12 C36 23.88 36 35.76 36 48 C32.04 48 28.08 48 24 48 C24 51.96 24 55.92 24 60 C16.08 60 8.16 60 0 60 C0 40.2 0 20.4 0 0 Z " fill="#494656" transform="translate(903,729)"/>
<path d="M0 0 C3.96 0 7.92 0 12 0 C12 35.64 12 71.28 12 108 C8.04 108 4.08 108 0 108 C0 92.16 0 76.32 0 60 C-3.96 60 -7.92 60 -12 60 C-12 44.16 -12 28.32 -12 12 C-8.04 12 -4.08 12 0 12 C0 8.04 0 4.08 0 0 Z " fill="#484756" transform="translate(735,681)"/>
<path d="M0 0 C11.88 0 23.76 0 36 0 C36 19.8 36 39.6 36 60 C32.04 60 28.08 60 24 60 C24 52.08 24 44.16 24 36 C20.04 36 16.08 36 12 36 C12 43.92 12 51.84 12 60 C8.04 60 4.08 60 0 60 C0 40.2 0 20.4 0 0 Z " fill="#494755" transform="translate(219,357)"/>
<path d="M0 0 C7.92 0 15.84 0 24 0 C24 23.76 24 47.52 24 72 C12.12 72 0.24 72 -12 72 C-12 68.04 -12 64.08 -12 60 C-8.04 60 -4.08 60 0 60 C0 40.2 0 20.4 0 0 Z " fill="#484755" transform="translate(255,273)"/>
<path d="M0 0 C3.96 0 7.92 0 12 0 C12 51.48 12 102.96 12 156 C8.04 156 4.08 156 0 156 C0 104.52 0 53.04 0 0 Z " fill="#494757" transform="translate(1143,177)"/>
<path d="M0 0 C11.88 0 23.76 0 36 0 C36 7.92 36 15.84 36 24 C39.96 24 43.92 24 48 24 C48 31.92 48 39.84 48 48 C40.08 48 32.16 48 24 48 C24 44.04 24 40.08 24 36 C16.08 36 8.16 36 0 36 C0 24.12 0 12.24 0 0 Z " fill="#DDB379" transform="translate(303,873)"/>
<path d="M0 0 C3.96 0 7.92 0 12 0 C12 3.96 12 7.92 12 12 C15.96 12 19.92 12 24 12 C24 31.8 24 51.6 24 72 C20.04 72 16.08 72 12 72 C12 60.12 12 48.24 12 36 C8.04 36 4.08 36 0 36 C0 43.92 0 51.84 0 60 C-3.96 60 -7.92 60 -12 60 C-12 44.16 -12 28.32 -12 12 C-8.04 12 -4.08 12 0 12 C0 8.04 0 4.08 0 0 Z " fill="#494755" transform="translate(783,489)"/>
<path d="M0 0 C7.92 0 15.84 0 24 0 C24 3.96 24 7.92 24 12 C27.96 12 31.92 12 36 12 C36 15.96 36 19.92 36 24 C32.04 24 28.08 24 24 24 C24 27.96 24 31.92 24 36 C27.96 36 31.92 36 36 36 C36 39.96 36 43.92 36 48 C32.04 48 28.08 48 24 48 C24 51.96 24 55.92 24 60 C16.08 60 8.16 60 0 60 C0 40.2 0 20.4 0 0 Z " fill="#474656" transform="translate(459,201)"/>
<path d="M0 0 C3.96 0 7.92 0 12 0 C12 3.96 12 7.92 12 12 C15.96 12 19.92 12 24 12 C24 27.84 24 43.68 24 60 C20.04 60 16.08 60 12 60 C12 52.08 12 44.16 12 36 C8.04 36 4.08 36 0 36 C0 43.92 0 51.84 0 60 C-3.96 60 -7.92 60 -12 60 C-12 44.16 -12 28.32 -12 12 C-8.04 12 -4.08 12 0 12 C0 8.04 0 4.08 0 0 Z " fill="#494656" transform="translate(999,861)"/>
<path d="M0 0 C7.92 0 15.84 0 24 0 C24 39.6 24 79.2 24 120 C20.04 120 16.08 120 12 120 C12 84.36 12 48.72 12 12 C8.04 12 4.08 12 0 12 C0 8.04 0 4.08 0 0 Z " fill="#494757" transform="translate(1107,609)"/>
<path d="M0 0 C3.96 0 7.92 0 12 0 C12 3.96 12 7.92 12 12 C15.96 12 19.92 12 24 12 C24 19.92 24 27.84 24 36 C27.96 36 31.92 36 36 36 C36 43.92 36 51.84 36 60 C24.12 60 12.24 60 0 60 C0 40.2 0 20.4 0 0 Z " fill="#DDB47A" transform="translate(147,585)"/>
<path d="M0 0 C3.96 0 7.92 0 12 0 C12 7.92 12 15.84 12 24 C15.96 24 19.92 24 24 24 C24 16.08 24 8.16 24 0 C27.96 0 31.92 0 36 0 C36 19.8 36 39.6 36 60 C32.04 60 28.08 60 24 60 C24 52.08 24 44.16 24 36 C20.04 36 16.08 36 12 36 C12 43.92 12 51.84 12 60 C8.04 60 4.08 60 0 60 C0 40.2 0 20.4 0 0 Z " fill="#494755" transform="translate(723,489)"/>
<path d="M0 0 C3.96 0 7.92 0 12 0 C12 15.84 12 31.68 12 48 C15.96 48 19.92 48 24 48 C24 32.16 24 16.32 24 0 C27.96 0 31.92 0 36 0 C36 19.8 36 39.6 36 60 C24.12 60 12.24 60 0 60 C0 40.2 0 20.4 0 0 Z " fill="#494656" transform="translate(651,213)"/>
<path d="M0 0 C15.84 0 31.68 0 48 0 C48 3.96 48 7.92 48 12 C44.04 12 40.08 12 36 12 C36 19.92 36 27.84 36 36 C24.12 36 12.24 36 0 36 C0 24.12 0 12.24 0 0 Z " fill="#7E93A1" transform="translate(315,1113)"/>
<path d="M0 0 C39.6 0 79.2 0 120 0 C120 3.96 120 7.92 120 12 C80.4 12 40.8 12 0 12 C0 8.04 0 4.08 0 0 Z " fill="#494756" transform="translate(471,453)"/>
<path d="M0 0 C3.96 0 7.92 0 12 0 C12 39.6 12 79.2 12 120 C8.04 120 4.08 120 0 120 C0 80.4 0 40.8 0 0 Z " fill="#494756" transform="translate(423,189)"/>
<path d="M0 0 C3.96 0 7.92 0 12 0 C12 7.92 12 15.84 12 24 C15.96 24 19.92 24 24 24 C24 16.08 24 8.16 24 0 C27.96 0 31.92 0 36 0 C36 11.88 36 23.76 36 36 C32.04 36 28.08 36 24 36 C24 43.92 24 51.84 24 60 C20.04 60 16.08 60 12 60 C12 52.08 12 44.16 12 36 C8.04 36 4.08 36 0 36 C0 24.12 0 12.24 0 0 Z " fill="#494656" transform="translate(1035,873)"/>
<path d="M0 0 C3.96 0 7.92 0 12 0 C12 19.8 12 39.6 12 60 C15.96 60 19.92 60 24 60 C24 63.96 24 67.92 24 72 C20.04 72 16.08 72 12 72 C12 79.92 12 87.84 12 96 C8.04 96 4.08 96 0 96 C0 64.32 0 32.64 0 0 Z " fill="#494757" transform="translate(711,837)"/>
<path d="M0 0 C3.96 0 7.92 0 12 0 C12 3.96 12 7.92 12 12 C15.96 12 19.92 12 24 12 C24 23.88 24 35.76 24 48 C20.04 48 16.08 48 12 48 C12 44.04 12 40.08 12 36 C8.04 36 4.08 36 0 36 C0 39.96 0 43.92 0 48 C-3.96 48 -7.92 48 -12 48 C-12 36.12 -12 24.24 -12 12 C-8.04 12 -4.08 12 0 12 C0 8.04 0 4.08 0 0 Z " fill="#494656" transform="translate(951,801)"/>
<path d="M0 0 C3.96 0 7.92 0 12 0 C12 7.92 12 15.84 12 24 C15.96 24 19.92 24 24 24 C24 16.08 24 8.16 24 0 C27.96 0 31.92 0 36 0 C36 11.88 36 23.76 36 36 C32.04 36 28.08 36 24 36 C24 43.92 24 51.84 24 60 C20.04 60 16.08 60 12 60 C12 52.08 12 44.16 12 36 C8.04 36 4.08 36 0 36 C0 24.12 0 12.24 0 0 Z " fill="#494656" transform="translate(999,741)"/>
<path d="M0 0 C23.76 0 47.52 0 72 0 C72 7.92 72 15.84 72 24 C60.12 24 48.24 24 36 24 C36 20.04 36 16.08 36 12 C24.12 12 12.24 12 0 12 C0 8.04 0 4.08 0 0 Z " fill="#E7C88F" transform="translate(903,669)"/>
<path d="M0 0 C3.96 0 7.92 0 12 0 C12 35.64 12 71.28 12 108 C8.04 108 4.08 108 0 108 C0 72.36 0 36.72 0 0 Z " fill="#494856" transform="translate(123,237)"/>
<path d="M0 0 C15.84 0 31.68 0 48 0 C48 3.96 48 7.92 48 12 C51.96 12 55.92 12 60 12 C60 15.96 60 19.92 60 24 C40.2 24 20.4 24 0 24 C0 16.08 0 8.16 0 0 Z " fill="#E7C88F" transform="translate(231,213)"/>
<path d="M0 0 C3.96 0 7.92 0 12 0 C12 7.92 12 15.84 12 24 C15.96 24 19.92 24 24 24 C24 16.08 24 8.16 24 0 C27.96 0 31.92 0 36 0 C36 11.88 36 23.76 36 36 C32.04 36 28.08 36 24 36 C24 43.92 24 51.84 24 60 C20.04 60 16.08 60 12 60 C12 52.08 12 44.16 12 36 C8.04 36 4.08 36 0 36 C0 24.12 0 12.24 0 0 Z " fill="#494656" transform="translate(555,201)"/>
<path d="M0 0 C31.68 0 63.36 0 96 0 C96 3.96 96 7.92 96 12 C64.32 12 32.64 12 0 12 C0 8.04 0 4.08 0 0 Z " fill="#494756" transform="translate(999,969)"/>
<path d="M0 0 C3.96 0 7.92 0 12 0 C12 7.92 12 15.84 12 24 C23.88 24 35.76 24 48 24 C48 27.96 48 31.92 48 36 C24.24 36 0.48 36 -24 36 C-24 32.04 -24 28.08 -24 24 C-16.08 24 -8.16 24 0 24 C0 16.08 0 8.16 0 0 Z " fill="#494857" transform="translate(735,969)"/>
<path d="M0 0 C19.8 0 39.6 0 60 0 C60 3.96 60 7.92 60 12 C44.16 12 28.32 12 12 12 C12 23.88 12 35.76 12 48 C8.04 48 4.08 48 0 48 C0 32.16 0 16.32 0 0 Z " fill="#494756" transform="translate(291,861)"/>
<path d="M0 0 C7.92 0 15.84 0 24 0 C24 3.96 24 7.92 24 12 C20.04 12 16.08 12 12 12 C12 15.96 12 19.92 12 24 C15.96 24 19.92 24 24 24 C24 27.96 24 31.92 24 36 C20.04 36 16.08 36 12 36 C12 39.96 12 43.92 12 48 C15.96 48 19.92 48 24 48 C24 51.96 24 55.92 24 60 C16.08 60 8.16 60 0 60 C0 40.2 0 20.4 0 0 Z " fill="#494656" transform="translate(807,849)"/>
<path d="M0 0 C3.96 0 7.92 0 12 0 C12 31.68 12 63.36 12 96 C8.04 96 4.08 96 0 96 C0 64.32 0 32.64 0 0 Z " fill="#494757" transform="translate(1119,837)"/>
<path d="M0 0 C3.96 0 7.92 0 12 0 C12 3.96 12 7.92 12 12 C15.96 12 19.92 12 24 12 C24 19.92 24 27.84 24 36 C20.04 36 16.08 36 12 36 C12 39.96 12 43.92 12 48 C8.04 48 4.08 48 0 48 C0 44.04 0 40.08 0 36 C-3.96 36 -7.92 36 -12 36 C-12 28.08 -12 20.16 -12 12 C-8.04 12 -4.08 12 0 12 C0 8.04 0 4.08 0 0 Z " fill="#AB7F75" transform="translate(567,705)"/>
<path d="M0 0 C31.68 0 63.36 0 96 0 C96 3.96 96 7.92 96 12 C64.32 12 32.64 12 0 12 C0 8.04 0 4.08 0 0 Z " fill="#494756" transform="translate(867,609)"/>
<path d="M0 0 C31.68 0 63.36 0 96 0 C96 3.96 96 7.92 96 12 C64.32 12 32.64 12 0 12 C0 8.04 0 4.08 0 0 Z " fill="#494857" transform="translate(507,537)"/>
<path d="M0 0 C7.92 0 15.84 0 24 0 C24 3.96 24 7.92 24 12 C20.04 12 16.08 12 12 12 C12 15.96 12 19.92 12 24 C15.96 24 19.92 24 24 24 C24 27.96 24 31.92 24 36 C20.04 36 16.08 36 12 36 C12 39.96 12 43.92 12 48 C15.96 48 19.92 48 24 48 C24 51.96 24 55.92 24 60 C16.08 60 8.16 60 0 60 C0 40.2 0 20.4 0 0 Z " fill="#494755" transform="translate(1083,525)"/>
<path d="M0 0 C7.92 0 15.84 0 24 0 C24 3.96 24 7.92 24 12 C20.04 12 16.08 12 12 12 C12 15.96 12 19.92 12 24 C15.96 24 19.92 24 24 24 C24 35.88 24 47.76 24 60 C16.08 60 8.16 60 0 60 C0 56.04 0 52.08 0 48 C3.96 48 7.92 48 12 48 C12 44.04 12 40.08 12 36 C8.04 36 4.08 36 0 36 C0 24.12 0 12.24 0 0 Z " fill="#494755" transform="translate(927,513)"/>
<path d="M0 0 C7.92 0 15.84 0 24 0 C24 3.96 24 7.92 24 12 C20.04 12 16.08 12 12 12 C12 15.96 12 19.92 12 24 C15.96 24 19.92 24 24 24 C24 27.96 24 31.92 24 36 C20.04 36 16.08 36 12 36 C12 39.96 12 43.92 12 48 C15.96 48 19.92 48 24 48 C24 51.96 24 55.92 24 60 C16.08 60 8.16 60 0 60 C0 40.2 0 20.4 0 0 Z " fill="#494656" transform="translate(519,369)"/>
<path d="M0 0 C7.92 0 15.84 0 24 0 C24 3.96 24 7.92 24 12 C20.04 12 16.08 12 12 12 C12 15.96 12 19.92 12 24 C15.96 24 19.92 24 24 24 C24 35.88 24 47.76 24 60 C16.08 60 8.16 60 0 60 C0 56.04 0 52.08 0 48 C3.96 48 7.92 48 12 48 C12 44.04 12 40.08 12 36 C8.04 36 4.08 36 0 36 C0 24.12 0 12.24 0 0 Z " fill="#494656" transform="translate(483,369)"/>
<path d="M0 0 C7.92 0 15.84 0 24 0 C24 3.96 24 7.92 24 12 C20.04 12 16.08 12 12 12 C12 15.96 12 19.92 12 24 C15.96 24 19.92 24 24 24 C24 27.96 24 31.92 24 36 C20.04 36 16.08 36 12 36 C12 39.96 12 43.92 12 48 C15.96 48 19.92 48 24 48 C24 51.96 24 55.92 24 60 C16.08 60 8.16 60 0 60 C0 40.2 0 20.4 0 0 Z " fill="#494656" transform="translate(507,201)"/>
<path d="M0 0 C34.98 0 69.96 0 106 0 C106 3.3 106 6.6 106 10 C71.02 10 36.04 10 0 10 C0 6.7 0 3.4 0 0 Z " fill="#474656" transform="translate(592,466)"/>
<path d="M0 0 C27.72 0 55.44 0 84 0 C84 3.96 84 7.92 84 12 C56.28 12 28.56 12 0 12 C0 8.04 0 4.08 0 0 Z " fill="#484757" transform="translate(327,1101)"/>
<path d="M0 0 C27.72 0 55.44 0 84 0 C84 3.96 84 7.92 84 12 C56.28 12 28.56 12 0 12 C0 8.04 0 4.08 0 0 Z " fill="#494756" transform="translate(915,957)"/>
<path d="M0 0 C7.92 0 15.84 0 24 0 C24 3.96 24 7.92 24 12 C20.04 12 16.08 12 12 12 C12 15.96 12 19.92 12 24 C0.12 24 -11.76 24 -24 24 C-24 27.96 -24 31.92 -24 36 C-27.96 36 -31.92 36 -36 36 C-36 28.08 -36 20.16 -36 12 C-24.12 12 -12.24 12 0 12 C0 8.04 0 4.08 0 0 Z " fill="#494857" transform="translate(315,957)"/>
<path d="M0 0 C27.72 0 55.44 0 84 0 C84 3.96 84 7.92 84 12 C56.28 12 28.56 12 0 12 C0 8.04 0 4.08 0 0 Z " fill="#494756" transform="translate(831,945)"/>
<path d="M0 0 C11.88 0 23.76 0 36 0 C36 3.96 36 7.92 36 12 C32.04 12 28.08 12 24 12 C24 27.84 24 43.68 24 60 C20.04 60 16.08 60 12 60 C12 44.16 12 28.32 12 12 C8.04 12 4.08 12 0 12 C0 8.04 0 4.08 0 0 Z " fill="#494656" transform="translate(807,717)"/>
<path d="M0 0 C27.72 0 55.44 0 84 0 C84 3.96 84 7.92 84 12 C56.28 12 28.56 12 0 12 C0 8.04 0 4.08 0 0 Z " fill="#494756" transform="translate(783,597)"/>
<path d="M0 0 C7.92 0 15.84 0 24 0 C24 3.96 24 7.92 24 12 C20.04 12 16.08 12 12 12 C12 23.88 12 35.76 12 48 C15.96 48 19.92 48 24 48 C24 51.96 24 55.92 24 60 C16.08 60 8.16 60 0 60 C0 40.2 0 20.4 0 0 Z " fill="#494755" transform="translate(879,501)"/>
<path d="M0 0 C11.88 0 23.76 0 36 0 C36 3.96 36 7.92 36 12 C32.04 12 28.08 12 24 12 C24 27.84 24 43.68 24 60 C20.04 60 16.08 60 12 60 C12 44.16 12 28.32 12 12 C8.04 12 4.08 12 0 12 C0 8.04 0 4.08 0 0 Z " fill="#494755" transform="translate(291,441)"/>
<path d="M0 0 C7.92 0 15.84 0 24 0 C24 3.96 24 7.92 24 12 C20.04 12 16.08 12 12 12 C12 23.88 12 35.76 12 48 C15.96 48 19.92 48 24 48 C24 51.96 24 55.92 24 60 C16.08 60 8.16 60 0 60 C0 40.2 0 20.4 0 0 Z " fill="#494755" transform="translate(159,417)"/>
<path d="M0 0 C3.96 0 7.92 0 12 0 C12 27.72 12 55.44 12 84 C8.04 84 4.08 84 0 84 C0 56.28 0 28.56 0 0 Z " fill="#494756" transform="translate(375,405)"/>
<path d="M0 0 C7.92 0 15.84 0 24 0 C24 3.96 24 7.92 24 12 C20.04 12 16.08 12 12 12 C12 15.96 12 19.92 12 24 C15.96 24 19.92 24 24 24 C24 27.96 24 31.92 24 36 C20.04 36 16.08 36 12 36 C12 43.92 12 51.84 12 60 C8.04 60 4.08 60 0 60 C0 40.2 0 20.4 0 0 Z " fill="#494656" transform="translate(591,381)"/>
<path d="M0 0 C7.92 0 15.84 0 24 0 C24 3.96 24 7.92 24 12 C20.04 12 16.08 12 12 12 C12 23.88 12 35.76 12 48 C15.96 48 19.92 48 24 48 C24 51.96 24 55.92 24 60 C16.08 60 8.16 60 0 60 C0 40.2 0 20.4 0 0 Z " fill="#494756" transform="translate(183,345)"/>
<path d="M0 0 C3.96 0 7.92 0 12 0 C12 27.72 12 55.44 12 84 C8.04 84 4.08 84 0 84 C0 56.28 0 28.56 0 0 Z " fill="#494756" transform="translate(747,285)"/>
<path d="M0 0 C7.92 0 15.84 0 24 0 C24 3.96 24 7.92 24 12 C20.04 12 16.08 12 12 12 C12 15.96 12 19.92 12 24 C15.96 24 19.92 24 24 24 C24 27.96 24 31.92 24 36 C20.04 36 16.08 36 12 36 C12 43.92 12 51.84 12 60 C8.04 60 4.08 60 0 60 C0 40.2 0 20.4 0 0 Z " fill="#494656" transform="translate(699,213)"/>
<path d="M0 0 C23.76 0 47.52 0 72 0 C72 3.96 72 7.92 72 12 C48.24 12 24.48 12 0 12 C0 8.04 0 4.08 0 0 Z " fill="#494857" transform="translate(1059,1113)"/>
<path d="M0 0 C23.76 0 47.52 0 72 0 C72 3.96 72 7.92 72 12 C48.24 12 24.48 12 0 12 C0 8.04 0 4.08 0 0 Z " fill="#494857" transform="translate(927,1089)"/>
<path d="M0 0 C23.76 0 47.52 0 72 0 C72 3.96 72 7.92 72 12 C48.24 12 24.48 12 0 12 C0 8.04 0 4.08 0 0 Z " fill="#494857" transform="translate(795,1065)"/>
<path d="M0 0 C23.76 0 47.52 0 72 0 C72 3.96 72 7.92 72 12 C48.24 12 24.48 12 0 12 C0 8.04 0 4.08 0 0 Z " fill="#494857" transform="translate(999,1041)"/>
<path d="M0 0 C23.76 0 47.52 0 72 0 C72 3.96 72 7.92 72 12 C48.24 12 24.48 12 0 12 C0 8.04 0 4.08 0 0 Z " fill="#494857" transform="translate(663,1041)"/>
<path d="M0 0 C23.76 0 47.52 0 72 0 C72 3.96 72 7.92 72 12 C48.24 12 24.48 12 0 12 C0 8.04 0 4.08 0 0 Z " fill="#494857" transform="translate(927,1029)"/>
<path d="M0 0 C23.76 0 47.52 0 72 0 C72 3.96 72 7.92 72 12 C48.24 12 24.48 12 0 12 C0 8.04 0 4.08 0 0 Z " fill="#494857" transform="translate(591,1029)"/>
<path d="M0 0 C23.76 0 47.52 0 72 0 C72 3.96 72 7.92 72 12 C48.24 12 24.48 12 0 12 C0 8.04 0 4.08 0 0 Z " fill="#494857" transform="translate(855,1017)"/>
<path d="M0 0 C23.76 0 47.52 0 72 0 C72 3.96 72 7.92 72 12 C48.24 12 24.48 12 0 12 C0 8.04 0 4.08 0 0 Z " fill="#494857" transform="translate(783,1005)"/>
<path d="M0 0 C23.76 0 47.52 0 72 0 C72 3.96 72 7.92 72 12 C48.24 12 24.48 12 0 12 C0 8.04 0 4.08 0 0 Z " fill="#494857" transform="translate(459,1005)"/>
<path d="M0 0 C23.76 0 47.52 0 72 0 C72 3.96 72 7.92 72 12 C48.24 12 24.48 12 0 12 C0 8.04 0 4.08 0 0 Z " fill="#494857" transform="translate(639,981)"/>
<path d="M0 0 C23.76 0 47.52 0 72 0 C72 3.96 72 7.92 72 12 C48.24 12 24.48 12 0 12 C0 8.04 0 4.08 0 0 Z " fill="#494857" transform="translate(327,981)"/>
<path d="M0 0 C23.76 0 47.52 0 72 0 C72 3.96 72 7.92 72 12 C48.24 12 24.48 12 0 12 C0 8.04 0 4.08 0 0 Z " fill="#494857" transform="translate(507,957)"/>
<path d="M0 0 C3.96 0 7.92 0 12 0 C12 15.84 12 31.68 12 48 C15.96 48 19.92 48 24 48 C24 51.96 24 55.92 24 60 C16.08 60 8.16 60 0 60 C0 40.2 0 20.4 0 0 Z " fill="#494656" transform="translate(843,849)"/>
<path d="M0 0 C3.96 0 7.92 0 12 0 C12 19.8 12 39.6 12 60 C8.04 60 4.08 60 0 60 C0 48.12 0 36.24 0 24 C-3.96 24 -7.92 24 -12 24 C-12 20.04 -12 16.08 -12 12 C-8.04 12 -4.08 12 0 12 C0 8.04 0 4.08 0 0 Z " fill="#494656" transform="translate(783,837)"/>
<path d="M0 0 C7.92 0 15.84 0 24 0 C24 3.96 24 7.92 24 12 C20.04 12 16.08 12 12 12 C12 27.84 12 43.68 12 60 C8.04 60 4.08 60 0 60 C0 40.2 0 20.4 0 0 Z " fill="#494656" transform="translate(747,837)"/>
<path d="M0 0 C23.76 0 47.52 0 72 0 C72 3.96 72 7.92 72 12 C48.24 12 24.48 12 0 12 C0 8.04 0 4.08 0 0 Z " fill="#494756" transform="translate(963,621)"/>
<path d="M0 0 C7.92 0 15.84 0 24 0 C24 19.8 24 39.6 24 60 C20.04 60 16.08 60 12 60 C12 44.16 12 28.32 12 12 C8.04 12 4.08 12 0 12 C0 8.04 0 4.08 0 0 Z " fill="#494855" transform="translate(1047,525)"/>
<path d="M0 0 C7.92 0 15.84 0 24 0 C24 3.96 24 7.92 24 12 C20.04 12 16.08 12 12 12 C12 27.84 12 43.68 12 60 C8.04 60 4.08 60 0 60 C0 40.2 0 20.4 0 0 Z " fill="#494855" transform="translate(1011,525)"/>
<path d="M0 0 C23.76 0 47.52 0 72 0 C72 3.96 72 7.92 72 12 C48.24 12 24.48 12 0 12 C0 8.04 0 4.08 0 0 Z " fill="#494756" transform="translate(279,525)"/>
<path d="M0 0 C7.92 0 15.84 0 24 0 C24 11.88 24 23.76 24 36 C16.08 36 8.16 36 0 36 C0 24.12 0 12.24 0 0 Z " fill="#4A4856" transform="translate(891,513)"/>
<path d="M0 0 C3.96 0 7.92 0 12 0 C12 19.8 12 39.6 12 60 C8.04 60 4.08 60 0 60 C0 48.12 0 36.24 0 24 C-3.96 24 -7.92 24 -12 24 C-12 20.04 -12 16.08 -12 12 C-8.04 12 -4.08 12 0 12 C0 8.04 0 4.08 0 0 Z " fill="#494855" transform="translate(855,501)"/>
<path d="M0 0 C7.92 0 15.84 0 24 0 C24 3.96 24 7.92 24 12 C20.04 12 16.08 12 12 12 C12 27.84 12 43.68 12 60 C8.04 60 4.08 60 0 60 C0 40.2 0 20.4 0 0 Z " fill="#494856" transform="translate(819,501)"/>
<path d="M0 0 C7.92 0 15.84 0 24 0 C24 11.88 24 23.76 24 36 C16.08 36 8.16 36 0 36 C0 24.12 0 12.24 0 0 Z " fill="#4A4856" transform="translate(171,429)"/>
<path d="M0 0 C3.96 0 7.92 0 12 0 C12 15.84 12 31.68 12 48 C15.96 48 19.92 48 24 48 C24 51.96 24 55.92 24 60 C16.08 60 8.16 60 0 60 C0 40.2 0 20.4 0 0 Z " fill="#494656" transform="translate(555,369)"/>
<path d="M0 0 C3.96 0 7.92 0 12 0 C12 19.8 12 39.6 12 60 C8.04 60 4.08 60 0 60 C0 48.12 0 36.24 0 24 C-3.96 24 -7.92 24 -12 24 C-12 20.04 -12 16.08 -12 12 C-8.04 12 -4.08 12 0 12 C0 8.04 0 4.08 0 0 Z " fill="#494756" transform="translate(303,357)"/>
<path d="M0 0 C7.92 0 15.84 0 24 0 C24 3.96 24 7.92 24 12 C20.04 12 16.08 12 12 12 C12 27.84 12 43.68 12 60 C8.04 60 4.08 60 0 60 C0 40.2 0 20.4 0 0 Z " fill="#494856" transform="translate(267,357)"/>
<path d="M0 0 C3.96 0 7.92 0 12 0 C12 23.76 12 47.52 12 72 C8.04 72 4.08 72 0 72 C0 48.24 0 24.48 0 0 Z " fill="#494756" transform="translate(411,309)"/>
<path d="M0 0 C7.92 0 15.84 0 24 0 C24 7.92 24 15.84 24 24 C-19.56 24 -63.12 24 -108 24 C-108 20.04 -108 16.08 -108 12 C-72.36 12 -36.72 12 0 12 C0 8.04 0 4.08 0 0 Z M-107 13 C-107 16.3 -107 19.6 -107 23 C-72.02 23 -37.04 23 -1 23 C-1 19.7 -1 16.4 -1 13 C-35.98 13 -70.96 13 -107 13 Z " fill="#494756" transform="translate(699,453)"/>
<path d="M0 0 C7.92 0 15.84 0 24 0 C24 3.96 24 7.92 24 12 C27.96 12 31.92 12 36 12 C36 15.96 36 19.92 36 24 C28.08 24 20.16 24 12 24 C12 19.71 12 15.42 12 11 C15.63 11 19.26 11 23 11 C23 7.7 23 4.4 23 1 C15.74 1 8.48 1 1 1 C1 20.14 1 39.28 1 59 C8.26 59 15.52 59 23 59 C23 55.7 23 52.4 23 49 C19.37 49 15.74 49 12 49 C12 44.71 12 40.42 12 36 C19.92 36 27.84 36 36 36 C36 39.96 36 43.92 36 48 C32.04 48 28.08 48 24 48 C24 51.96 24 55.92 24 60 C16.08 60 8.16 60 0 60 C0 40.2 0 20.4 0 0 Z " fill="#53485A" transform="translate(459,201)"/>
<path d="M0 0 C19.8 0 39.6 0 60 0 C60 3.96 60 7.92 60 12 C40.2 12 20.4 12 0 12 C0 8.04 0 4.08 0 0 Z " fill="#494857" transform="translate(999,1101)"/>
<path d="M0 0 C19.8 0 39.6 0 60 0 C60 3.96 60 7.92 60 12 C40.2 12 20.4 12 0 12 C0 8.04 0 4.08 0 0 Z " fill="#494857" transform="translate(867,1077)"/>
<path d="M0 0 C19.8 0 39.6 0 60 0 C60 3.96 60 7.92 60 12 C40.2 12 20.4 12 0 12 C0 8.04 0 4.08 0 0 Z " fill="#494857" transform="translate(735,1053)"/>
<path d="M0 0 C19.8 0 39.6 0 60 0 C60 3.96 60 7.92 60 12 C40.2 12 20.4 12 0 12 C0 8.04 0 4.08 0 0 Z " fill="#494857" transform="translate(531,1017)"/>
<path d="M0 0 C19.8 0 39.6 0 60 0 C60 3.96 60 7.92 60 12 C40.2 12 20.4 12 0 12 C0 8.04 0 4.08 0 0 Z " fill="#494857" transform="translate(399,993)"/>
<path d="M0 0 C19.8 0 39.6 0 60 0 C60 3.96 60 7.92 60 12 C40.2 12 20.4 12 0 12 C0 8.04 0 4.08 0 0 Z " fill="#494857" transform="translate(579,969)"/>
<path d="M0 0 C3.96 0 7.92 0 12 0 C12 15.84 12 31.68 12 48 C4.08 48 -3.84 48 -12 48 C-12 44.04 -12 40.08 -12 36 C-8.04 36 -4.08 36 0 36 C0 24.12 0 12.24 0 0 Z " fill="#494656" transform="translate(891,861)"/>
<path d="M0 0 C19.8 0 39.6 0 60 0 C60 3.96 60 7.92 60 12 C40.2 12 20.4 12 0 12 C0 8.04 0 4.08 0 0 Z " fill="#494756" transform="translate(1035,633)"/>
<path d="M0 0 C19.8 0 39.6 0 60 0 C60 3.96 60 7.92 60 12 C40.2 12 20.4 12 0 12 C0 8.04 0 4.08 0 0 Z " fill="#E7C88F" transform="translate(915,633)"/>
<path d="M0 0 C19.8 0 39.6 0 60 0 C60 3.96 60 7.92 60 12 C40.2 12 20.4 12 0 12 C0 8.04 0 4.08 0 0 Z " fill="#494756" transform="translate(171,501)"/>
<path d="M0 0 C3.96 0 7.92 0 12 0 C12 19.8 12 39.6 12 60 C8.04 60 4.08 60 0 60 C0 40.2 0 20.4 0 0 Z " fill="#EEC355" transform="translate(243,273)"/>
<path d="M0 0 C23.76 0 47.52 0 72 0 C72 3.96 72 7.92 72 12 C71.67 12 71.34 12 71 12 C71 8.37 71 4.74 71 1 C47.9 1 24.8 1 1 1 C1 163.03 1 325.06 1 492 C4.63 492 8.26 492 12 492 C12 495.96 12 499.92 12 504 C8.04 504 4.08 504 0 504 C0 337.68 0 171.36 0 0 Z " fill="#DCD7B6" transform="translate(111,657)"/>
<path d="M0 0 C4.29 0 8.58 0 13 0 C13 3.63 13 7.26 13 11 C55.9 11 98.8 11 143 11 C143 7.37 143 3.74 143 0 C151.25 0 159.5 0 168 0 C168 3.96 168 7.92 168 12 C112.56 12 57.12 12 0 12 C0 8.04 0 4.08 0 0 Z " fill="#E7A061" transform="translate(387,825)"/>
<path d="M0 0 C3.96 0 7.92 0 12 0 C12 15.84 12 31.68 12 48 C8.04 48 4.08 48 0 48 C0 32.16 0 16.32 0 0 Z " fill="#494857" transform="translate(255,1029)"/>
<path d="M0 0 C15.84 0 31.68 0 48 0 C48 3.96 48 7.92 48 12 C32.16 12 16.32 12 0 12 C0 8.04 0 4.08 0 0 Z " fill="#494756" transform="translate(783,933)"/>
<path d="M0 0 C3.96 0 7.92 0 12 0 C12 15.84 12 31.68 12 48 C8.04 48 4.08 48 0 48 C0 32.16 0 16.32 0 0 Z " fill="#494756" transform="translate(423,873)"/>
<path d="M0 0 C3.96 0 7.92 0 12 0 C12 7.92 12 15.84 12 24 C0.12 24 -11.76 24 -24 24 C-24 20.04 -24 16.08 -24 12 C-16.08 12 -8.16 12 0 12 C0 8.04 0 4.08 0 0 Z " fill="#AA7E75" transform="translate(579,801)"/>
<path d="M0 0 C3.96 0 7.92 0 12 0 C12 15.84 12 31.68 12 48 C8.04 48 4.08 48 0 48 C0 32.16 0 16.32 0 0 Z " fill="#494757" transform="translate(723,789)"/>
<path d="M0 0 C15.84 0 31.68 0 48 0 C48 3.96 48 7.92 48 12 C32.16 12 16.32 12 0 12 C0 8.04 0 4.08 0 0 Z " fill="#494856" transform="translate(231,513)"/>
<path d="M0 0 C15.84 0 31.68 0 48 0 C48 3.96 48 7.92 48 12 C32.16 12 16.32 12 0 12 C0 8.04 0 4.08 0 0 Z " fill="#494756" transform="translate(423,441)"/>
<path d="M0 0 C3.96 0 7.92 0 12 0 C12 15.84 12 31.68 12 48 C8.04 48 4.08 48 0 48 C0 32.16 0 16.32 0 0 Z " fill="#494756" transform="translate(399,381)"/>
<path d="M0 0 C3.96 0 7.92 0 12 0 C12 15.84 12 31.68 12 48 C8.04 48 4.08 48 0 48 C0 32.16 0 16.32 0 0 Z " fill="#494756" transform="translate(735,369)"/>
<path d="M0 0 C3.96 0 7.92 0 12 0 C12 15.84 12 31.68 12 48 C8.04 48 4.08 48 0 48 C0 32.16 0 16.32 0 0 Z " fill="#EEC355" transform="translate(915,333)"/>
<path d="M0 0 C3.96 0 7.92 0 12 0 C12 3.96 12 7.92 12 12 C-106.8 12 -225.6 12 -348 12 C-348 11.67 -348 11.34 -348 11 C-233.16 11 -118.32 11 0 11 C0 7.37 0 3.74 0 0 Z " fill="#DDD8B6" transform="translate(1155,1149)"/>
<path d="M0 0 C3.96 0 7.92 0 12 0 C12 3.96 12 7.92 12 12 C8.37 12 4.74 12 1 12 C1 86.91 1 161.82 1 239 C4.3 239 7.6 239 11 239 C11 203.69 11 168.38 11 132 C11.33 132 11.66 132 12 132 C12 167.64 12 203.28 12 240 C8.04 240 4.08 240 0 240 C0 160.8 0 81.6 0 0 Z " fill="#DDD8B6" transform="translate(111,105)"/>
<path d="M0 0 C3.96 0 7.92 0 12 0 C12 11.88 12 23.76 12 36 C8.04 36 4.08 36 0 36 C0 24.12 0 12.24 0 0 Z " fill="#6B7A8D" transform="translate(315,1113)"/>
<path d="M0 0 C3.96 0 7.92 0 12 0 C12 11.88 12 23.76 12 36 C8.04 36 4.08 36 0 36 C0 24.12 0 12.24 0 0 Z " fill="#494857" transform="translate(243,1077)"/>
<path d="M0 0 C3.96 0 7.92 0 12 0 C12 11.88 12 23.76 12 36 C8.04 36 4.08 36 0 36 C0 24.12 0 12.24 0 0 Z " fill="#494857" transform="translate(267,993)"/>
<path d="M0 0 C3.96 0 7.92 0 12 0 C12 11.88 12 23.76 12 36 C8.04 36 4.08 36 0 36 C0 24.12 0 12.24 0 0 Z " fill="#494857" transform="translate(723,933)"/>
<path d="M0 0 C11.88 0 23.76 0 36 0 C36 3.96 36 7.92 36 12 C24.12 12 12.24 12 0 12 C0 8.04 0 4.08 0 0 Z " fill="#494756" transform="translate(747,921)"/>
<path d="M0 0 C3.96 0 7.92 0 12 0 C12 11.88 12 23.76 12 36 C8.04 36 4.08 36 0 36 C0 24.12 0 12.24 0 0 Z " fill="#494656" transform="translate(1083,885)"/>
<path d="M0 0 C3.96 0 7.92 0 12 0 C12 11.88 12 23.76 12 36 C8.04 36 4.08 36 0 36 C0 24.12 0 12.24 0 0 Z " fill="#494656" transform="translate(963,873)"/>
<path d="M0 0 C3.96 0 7.92 0 12 0 C12 11.88 12 23.76 12 36 C8.04 36 4.08 36 0 36 C0 24.12 0 12.24 0 0 Z " fill="#DB6589" transform="translate(951,873)"/>
<path d="M0 0 C3.96 0 7.92 0 12 0 C12 7.92 12 15.84 12 24 C4.08 24 -3.84 24 -12 24 C-12 20.04 -12 16.08 -12 12 C-8.04 12 -4.08 12 0 12 C0 8.04 0 4.08 0 0 Z " fill="#494656" transform="translate(903,825)"/>
<path d="M0 0 C7.92 0 15.84 0 24 0 C24 3.96 24 7.92 24 12 C20.04 12 16.08 12 12 12 C12 15.96 12 19.92 12 24 C8.04 24 4.08 24 0 24 C0 16.08 0 8.16 0 0 Z " fill="#494656" transform="translate(891,801)"/>
<path d="M0 0 C3.96 0 7.92 0 12 0 C12 11.88 12 23.76 12 36 C8.04 36 4.08 36 0 36 C0 24.12 0 12.24 0 0 Z " fill="#494656" transform="translate(927,741)"/>
<path d="M0 0 C3.96 0 7.92 0 12 0 C12 11.88 12 23.76 12 36 C8.04 36 4.08 36 0 36 C0 24.12 0 12.24 0 0 Z " fill="#DB6589" transform="translate(915,741)"/>
<path d="M0 0 C3.96 0 7.92 0 12 0 C12 11.88 12 23.76 12 36 C8.04 36 4.08 36 0 36 C0 24.12 0 12.24 0 0 Z " fill="#DB6589" transform="translate(867,729)"/>
<path d="M0 0 C3.96 0 7.92 0 12 0 C12 11.88 12 23.76 12 36 C8.04 36 4.08 36 0 36 C0 24.12 0 12.24 0 0 Z " fill="#494857" transform="translate(711,657)"/>
<path d="M0 0 C11.88 0 23.76 0 36 0 C36 3.96 36 7.92 36 12 C24.12 12 12.24 12 0 12 C0 8.04 0 4.08 0 0 Z " fill="#4A4856" transform="translate(747,585)"/>
<path d="M0 0 C3.96 0 7.92 0 12 0 C12 11.88 12 23.76 12 36 C8.04 36 4.08 36 0 36 C0 24.12 0 12.24 0 0 Z " fill="#EDC355" transform="translate(975,525)"/>
<path d="M0 0 C3.96 0 7.92 0 12 0 C12 11.88 12 23.76 12 36 C8.04 36 4.08 36 0 36 C0 24.12 0 12.24 0 0 Z " fill="#EDC354" transform="translate(891,513)"/>
<path d="M0 0 C11.88 0 23.76 0 36 0 C36 3.96 36 7.92 36 12 C24.12 12 12.24 12 0 12 C0 8.04 0 4.08 0 0 Z " fill="#494856" transform="translate(135,489)"/>
<path d="M0 0 C3.96 0 7.92 0 12 0 C12 11.88 12 23.76 12 36 C8.04 36 4.08 36 0 36 C0 24.12 0 12.24 0 0 Z " fill="#4A4855" transform="translate(267,453)"/>
<path d="M0 0 C3.96 0 7.92 0 12 0 C12 11.88 12 23.76 12 36 C8.04 36 4.08 36 0 36 C0 24.12 0 12.24 0 0 Z " fill="#4A4855" transform="translate(339,441)"/>
<path d="M0 0 C3.96 0 7.92 0 12 0 C12 11.88 12 23.76 12 36 C8.04 36 4.08 36 0 36 C0 24.12 0 12.24 0 0 Z " fill="#EDC355" transform="translate(219,441)"/>
<path d="M0 0 C3.96 0 7.92 0 12 0 C12 11.88 12 23.76 12 36 C8.04 36 4.08 36 0 36 C0 24.12 0 12.24 0 0 Z " fill="#EDC354" transform="translate(171,429)"/>
<path d="M0 0 C3.96 0 7.92 0 12 0 C12 11.88 12 23.76 12 36 C8.04 36 4.08 36 0 36 C0 24.12 0 12.24 0 0 Z " fill="#494756" transform="translate(723,417)"/>
<path d="M0 0 C3.96 0 7.92 0 12 0 C12 11.88 12 23.76 12 36 C8.04 36 4.08 36 0 36 C0 24.12 0 12.24 0 0 Z " fill="#494656" transform="translate(675,381)"/>
<path d="M0 0 C3.96 0 7.92 0 12 0 C12 11.88 12 23.76 12 36 C8.04 36 4.08 36 0 36 C0 24.12 0 12.24 0 0 Z " fill="#494656" transform="translate(651,381)"/>
<path d="M0 0 C3.96 0 7.92 0 12 0 C12 11.88 12 23.76 12 36 C8.04 36 4.08 36 0 36 C0 24.12 0 12.24 0 0 Z " fill="#494656" transform="translate(627,381)"/>
<path d="M0 0 C3.96 0 7.92 0 12 0 C12 11.88 12 23.76 12 36 C8.04 36 4.08 36 0 36 C0 24.12 0 12.24 0 0 Z " fill="#DB6589" transform="translate(615,225)"/>
<path d="M0 0 C39.6 0 79.2 0 120 0 C120 3.96 120 7.92 120 12 C80.4 12 40.8 12 0 12 C0 8.04 0 4.08 0 0 Z M1 1 C1 4.3 1 7.6 1 11 C35.98 11 70.96 11 107 11 C107 7.7 107 4.4 107 1 C72.02 1 37.04 1 1 1 Z " fill="#534D5A" transform="translate(591,465)"/>
<path d="M0 0 C3.96 0 7.92 0 12 0 C12 7.92 12 15.84 12 24 C8.04 24 4.08 24 0 24 C0 16.08 0 8.16 0 0 Z " fill="#6C7B8E" transform="translate(339,1125)"/>
<path d="M0 0 C3.96 0 7.92 0 12 0 C12 7.92 12 15.84 12 24 C8.04 24 4.08 24 0 24 C0 16.08 0 8.16 0 0 Z " fill="#7E94A2" transform="translate(327,1125)"/>
<path d="M0 0 C7.92 0 15.84 0 24 0 C24 3.96 24 7.92 24 12 C16.08 12 8.16 12 0 12 C0 8.04 0 4.08 0 0 Z " fill="#484757" transform="translate(411,1113)"/>
<path d="M0 0 C3.96 0 7.92 0 12 0 C12 7.92 12 15.84 12 24 C8.04 24 4.08 24 0 24 C0 16.08 0 8.16 0 0 Z " fill="#494857" transform="translate(231,1113)"/>
<path d="M0 0 C3.96 0 7.92 0 12 0 C12 7.92 12 15.84 12 24 C8.04 24 4.08 24 0 24 C0 16.08 0 8.16 0 0 Z " fill="#DCB279" transform="translate(1095,969)"/>
<path d="M0 0 C7.92 0 15.84 0 24 0 C24 3.96 24 7.92 24 12 C16.08 12 8.16 12 0 12 C0 8.04 0 4.08 0 0 Z " fill="#4A4856" transform="translate(303,909)"/>
<path d="M0 0 C3.96 0 7.92 0 12 0 C12 7.92 12 15.84 12 24 C8.04 24 4.08 24 0 24 C0 16.08 0 8.16 0 0 Z " fill="#D96588" transform="translate(999,861)"/>
<path d="M0 0 C3.96 0 7.92 0 12 0 C12 7.92 12 15.84 12 24 C8.04 24 4.08 24 0 24 C0 16.08 0 8.16 0 0 Z " fill="#4A4857" transform="translate(579,861)"/>
<path d="M0 0 C3.96 0 7.92 0 12 0 C12 7.92 12 15.84 12 24 C8.04 24 4.08 24 0 24 C0 16.08 0 8.16 0 0 Z " fill="#4A4857" transform="translate(591,837)"/>
<path d="M0 0 C3.96 0 7.92 0 12 0 C12 7.92 12 15.84 12 24 C8.04 24 4.08 24 0 24 C0 16.08 0 8.16 0 0 Z " fill="#4A4657" transform="translate(867,825)"/>
<path d="M0 0 C7.92 0 15.84 0 24 0 C24 3.96 24 7.92 24 12 C16.08 12 8.16 12 0 12 C0 8.04 0 4.08 0 0 Z " fill="#494756" transform="translate(531,825)"/>
<path d="M0 0 C3.96 0 7.92 0 12 0 C12 7.92 12 15.84 12 24 C8.04 24 4.08 24 0 24 C0 16.08 0 8.16 0 0 Z " fill="#4A4856" transform="translate(363,825)"/>
<path d="M0 0 C3.96 0 7.92 0 12 0 C12 7.92 12 15.84 12 24 C8.04 24 4.08 24 0 24 C0 16.08 0 8.16 0 0 Z " fill="#D96588" transform="translate(951,801)"/>
<path d="M0 0 C3.96 0 7.92 0 12 0 C12 7.92 12 15.84 12 24 C8.04 24 4.08 24 0 24 C0 16.08 0 8.16 0 0 Z " fill="#4A4857" transform="translate(603,813)"/>
<path d="M0 0 C7.92 0 15.84 0 24 0 C24 3.96 24 7.92 24 12 C16.08 12 8.16 12 0 12 C0 8.04 0 4.08 0 0 Z " fill="#494756" transform="translate(555,813)"/>
<path d="M0 0 C7.92 0 15.84 0 24 0 C24 3.96 24 7.92 24 12 C16.08 12 8.16 12 0 12 C0 8.04 0 4.08 0 0 Z " fill="#4A4856" transform="translate(339,813)"/>
<path d="M0 0 C3.96 0 7.92 0 12 0 C12 7.92 12 15.84 12 24 C8.04 24 4.08 24 0 24 C0 16.08 0 8.16 0 0 Z " fill="#4A4856" transform="translate(375,801)"/>
<path d="M0 0 C7.92 0 15.84 0 24 0 C24 3.96 24 7.92 24 12 C16.08 12 8.16 12 0 12 C0 8.04 0 4.08 0 0 Z " fill="#4A4856" transform="translate(315,801)"/>
<path d="M0 0 C3.96 0 7.92 0 12 0 C12 7.92 12 15.84 12 24 C8.04 24 4.08 24 0 24 C0 16.08 0 8.16 0 0 Z " fill="#AC8076" transform="translate(279,801)"/>
<path d="M0 0 C3.96 0 7.92 0 12 0 C12 7.92 12 15.84 12 24 C8.04 24 4.08 24 0 24 C0 16.08 0 8.16 0 0 Z " fill="#4A4856" transform="translate(411,753)"/>
<path d="M0 0 C3.96 0 7.92 0 12 0 C12 7.92 12 15.84 12 24 C8.04 24 4.08 24 0 24 C0 16.08 0 8.16 0 0 Z " fill="#4A4857" transform="translate(267,741)"/>
<path d="M0 0 C3.96 0 7.92 0 12 0 C12 7.92 12 15.84 12 24 C8.04 24 4.08 24 0 24 C0 16.08 0 8.16 0 0 Z " fill="#4A4957" transform="translate(255,717)"/>
<path d="M0 0 C3.96 0 7.92 0 12 0 C12 7.92 12 15.84 12 24 C8.04 24 4.08 24 0 24 C0 16.08 0 8.16 0 0 Z " fill="#AB7F75" transform="translate(447,705)"/>
<path d="M0 0 C7.92 0 15.84 0 24 0 C24 3.96 24 7.92 24 12 C16.08 12 8.16 12 0 12 C0 8.04 0 4.08 0 0 Z " fill="#4A4857" transform="translate(183,657)"/>
<path d="M0 0 C3.96 0 7.92 0 12 0 C12 7.92 12 15.84 12 24 C8.04 24 4.08 24 0 24 C0 16.08 0 8.16 0 0 Z " fill="#4A4958" transform="translate(699,633)"/>
<path d="M0 0 C7.92 0 15.84 0 24 0 C24 3.96 24 7.92 24 12 C16.08 12 8.16 12 0 12 C0 8.04 0 4.08 0 0 Z " fill="#D9B179" transform="translate(1107,609)"/>
<path d="M0 0 C3.96 0 7.92 0 12 0 C12 7.92 12 15.84 12 24 C8.04 24 4.08 24 0 24 C0 16.08 0 8.16 0 0 Z " fill="#6E7C8E" transform="translate(687,609)"/>
<path d="M0 0 C3.96 0 7.92 0 12 0 C12 7.92 12 15.84 12 24 C8.04 24 4.08 24 0 24 C0 16.08 0 8.16 0 0 Z " fill="#4A4857" transform="translate(435,609)"/>
<path d="M0 0 C3.96 0 7.92 0 12 0 C12 7.92 12 15.84 12 24 C8.04 24 4.08 24 0 24 C0 16.08 0 8.16 0 0 Z " fill="#4A4857" transform="translate(447,585)"/>
<path d="M0 0 C7.92 0 15.84 0 24 0 C24 3.96 24 7.92 24 12 C16.08 12 8.16 12 0 12 C0 8.04 0 4.08 0 0 Z " fill="#4A4856" transform="translate(723,573)"/>
<path d="M0 0 C7.92 0 15.84 0 24 0 C24 3.96 24 7.92 24 12 C16.08 12 8.16 12 0 12 C0 8.04 0 4.08 0 0 Z " fill="#6E7C8D" transform="translate(627,561)"/>
<path d="M0 0 C7.92 0 15.84 0 24 0 C24 3.96 24 7.92 24 12 C16.08 12 8.16 12 0 12 C0 8.04 0 4.08 0 0 Z " fill="#4A4857" transform="translate(603,549)"/>
<path d="M0 0 C7.92 0 15.84 0 24 0 C24 3.96 24 7.92 24 12 C16.08 12 8.16 12 0 12 C0 8.04 0 4.08 0 0 Z " fill="#4A4857" transform="translate(483,549)"/>
<path d="M0 0 C3.96 0 7.92 0 12 0 C12 7.92 12 15.84 12 24 C8.04 24 4.08 24 0 24 C0 16.08 0 8.16 0 0 Z " fill="#ECC255" transform="translate(783,489)"/>
<path d="M0 0 C3.96 0 7.92 0 12 0 C12 7.92 12 15.84 12 24 C8.04 24 4.08 24 0 24 C0 16.08 0 8.16 0 0 Z " fill="#4A4856" transform="translate(363,489)"/>
<path d="M0 0 C3.96 0 7.92 0 12 0 C12 7.92 12 15.84 12 24 C8.04 24 4.08 24 0 24 C0 16.08 0 8.16 0 0 Z " fill="#494657" transform="translate(723,249)"/>
<path d="M0 0 C7.92 0 15.84 0 24 0 C24 3.96 24 7.92 24 12 C16.08 12 8.16 12 0 12 C0 8.04 0 4.08 0 0 Z " fill="#4A4657" transform="translate(711,225)"/>
<path d="M0 0 C3.96 0 7.92 0 12 0 C12 3.96 12 7.92 12 12 C8.04 12 4.08 12 0 12 C0 8.04 0 4.08 0 0 Z " fill="#C2B4AD" transform="translate(1155,1149)"/>
<path d="M0 0 C3.96 0 7.92 0 12 0 C12 3.96 12 7.92 12 12 C8.04 12 4.08 12 0 12 C0 8.04 0 4.08 0 0 Z " fill="#C2B4AC" transform="translate(111,1149)"/>
<path d="M0 0 C3.96 0 7.92 0 12 0 C12 3.96 12 7.92 12 12 C8.04 12 4.08 12 0 12 C0 8.04 0 4.08 0 0 Z " fill="#494858" transform="translate(447,1137)"/>
<path d="M0 0 C3.96 0 7.92 0 12 0 C12 3.96 12 7.92 12 12 C8.04 12 4.08 12 0 12 C0 8.04 0 4.08 0 0 Z " fill="#494858" transform="translate(435,1125)"/>
<path d="M0 0 C3.96 0 7.92 0 12 0 C12 3.96 12 7.92 12 12 C8.04 12 4.08 12 0 12 C0 8.04 0 4.08 0 0 Z " fill="#494858" transform="translate(315,1113)"/>
<path d="M0 0 C3.96 0 7.92 0 12 0 C12 3.96 12 7.92 12 12 C8.04 12 4.08 12 0 12 C0 8.04 0 4.08 0 0 Z " fill="#6C7B8E" transform="translate(351,1113)"/>
<path d="M0 0 C3.96 0 7.92 0 12 0 C12 3.96 12 7.92 12 12 C8.04 12 4.08 12 0 12 C0 8.04 0 4.08 0 0 Z " fill="#6B7A8D" transform="translate(327,1113)"/>
<path d="M0 0 C3.96 0 7.92 0 12 0 C12 3.96 12 7.92 12 12 C8.04 12 4.08 12 0 12 C0 8.04 0 4.08 0 0 Z " fill="#DCB279" transform="translate(999,1029)"/>
<path d="M0 0 C3.96 0 7.92 0 12 0 C12 3.96 12 7.92 12 12 C8.04 12 4.08 12 0 12 C0 8.04 0 4.08 0 0 Z " fill="#4B4957" transform="translate(339,945)"/>
<path d="M0 0 C3.96 0 7.92 0 12 0 C12 3.96 12 7.92 12 12 C8.04 12 4.08 12 0 12 C0 8.04 0 4.08 0 0 Z " fill="#4A4657" transform="translate(1083,933)"/>
<path d="M0 0 C3.96 0 7.92 0 12 0 C12 3.96 12 7.92 12 12 C8.04 12 4.08 12 0 12 C0 8.04 0 4.08 0 0 Z " fill="#4B4957" transform="translate(531,921)"/>
<path d="M0 0 C3.96 0 7.92 0 12 0 C12 3.96 12 7.92 12 12 C8.04 12 4.08 12 0 12 C0 8.04 0 4.08 0 0 Z " fill="#4B4757" transform="translate(735,909)"/>
<path d="M0 0 C3.96 0 7.92 0 12 0 C12 3.96 12 7.92 12 12 C8.04 12 4.08 12 0 12 C0 8.04 0 4.08 0 0 Z " fill="#4B4957" transform="translate(543,909)"/>
<path d="M0 0 C3.96 0 7.92 0 12 0 C12 3.96 12 7.92 12 12 C8.04 12 4.08 12 0 12 C0 8.04 0 4.08 0 0 Z " fill="#4B4957" transform="translate(555,897)"/>
<path d="M0 0 C3.96 0 7.92 0 12 0 C12 3.96 12 7.92 12 12 C8.04 12 4.08 12 0 12 C0 8.04 0 4.08 0 0 Z " fill="#4B4657" transform="translate(867,885)"/>
<path d="M0 0 C3.96 0 7.92 0 12 0 C12 3.96 12 7.92 12 12 C8.04 12 4.08 12 0 12 C0 8.04 0 4.08 0 0 Z " fill="#4B4957" transform="translate(567,885)"/>
<path d="M0 0 C3.96 0 7.92 0 12 0 C12 3.96 12 7.92 12 12 C8.04 12 4.08 12 0 12 C0 8.04 0 4.08 0 0 Z " fill="#4A4657" transform="translate(999,861)"/>
<path d="M0 0 C3.96 0 7.92 0 12 0 C12 3.96 12 7.92 12 12 C8.04 12 4.08 12 0 12 C0 8.04 0 4.08 0 0 Z " fill="#4B4956" transform="translate(351,849)"/>
<path d="M0 0 C3.96 0 7.92 0 12 0 C12 3.96 12 7.92 12 12 C8.04 12 4.08 12 0 12 C0 8.04 0 4.08 0 0 Z " fill="#4B4856" transform="translate(387,825)"/>
<path d="M0 0 C3.96 0 7.92 0 12 0 C12 3.96 12 7.92 12 12 C8.04 12 4.08 12 0 12 C0 8.04 0 4.08 0 0 Z " fill="#4B4657" transform="translate(951,801)"/>
<path d="M0 0 C3.96 0 7.92 0 12 0 C12 3.96 12 7.92 12 12 C8.04 12 4.08 12 0 12 C0 8.04 0 4.08 0 0 Z " fill="#4B4657" transform="translate(867,801)"/>
<path d="M0 0 C3.96 0 7.92 0 12 0 C12 3.96 12 7.92 12 12 C8.04 12 4.08 12 0 12 C0 8.04 0 4.08 0 0 Z " fill="#4B4856" transform="translate(579,801)"/>
<path d="M0 0 C3.96 0 7.92 0 12 0 C12 3.96 12 7.92 12 12 C8.04 12 4.08 12 0 12 C0 8.04 0 4.08 0 0 Z " fill="#AC8075" transform="translate(591,789)"/>
<path d="M0 0 C3.96 0 7.92 0 12 0 C12 3.96 12 7.92 12 12 C8.04 12 4.08 12 0 12 C0 8.04 0 4.08 0 0 Z " fill="#4B4856" transform="translate(387,789)"/>
<path d="M0 0 C3.96 0 7.92 0 12 0 C12 3.96 12 7.92 12 12 C8.04 12 4.08 12 0 12 C0 8.04 0 4.08 0 0 Z " fill="#4B4956" transform="translate(303,789)"/>
<path d="M0 0 C3.96 0 7.92 0 12 0 C12 3.96 12 7.92 12 12 C8.04 12 4.08 12 0 12 C0 8.04 0 4.08 0 0 Z " fill="#4B4856" transform="translate(399,777)"/>
<path d="M0 0 C3.96 0 7.92 0 12 0 C12 3.96 12 7.92 12 12 C8.04 12 4.08 12 0 12 C0 8.04 0 4.08 0 0 Z " fill="#4B4957" transform="translate(291,777)"/>
<path d="M0 0 C3.96 0 7.92 0 12 0 C12 3.96 12 7.92 12 12 C8.04 12 4.08 12 0 12 C0 8.04 0 4.08 0 0 Z " fill="#4B4957" transform="translate(279,765)"/>
<path d="M0 0 C3.96 0 7.92 0 12 0 C12 3.96 12 7.92 12 12 C8.04 12 4.08 12 0 12 C0 8.04 0 4.08 0 0 Z " fill="#D96588" transform="translate(963,741)"/>
<path d="M0 0 C3.96 0 7.92 0 12 0 C12 3.96 12 7.92 12 12 C8.04 12 4.08 12 0 12 C0 8.04 0 4.08 0 0 Z " fill="#AA7E75" transform="translate(435,729)"/>
<path d="M0 0 C3.96 0 7.92 0 12 0 C12 3.96 12 7.92 12 12 C8.04 12 4.08 12 0 12 C0 8.04 0 4.08 0 0 Z " fill="#4B4958" transform="translate(243,705)"/>
<path d="M0 0 C3.96 0 7.92 0 12 0 C12 3.96 12 7.92 12 12 C8.04 12 4.08 12 0 12 C0 8.04 0 4.08 0 0 Z " fill="#4B4958" transform="translate(231,693)"/>
<path d="M0 0 C3.96 0 7.92 0 12 0 C12 3.96 12 7.92 12 12 C8.04 12 4.08 12 0 12 C0 8.04 0 4.08 0 0 Z " fill="#4B4A58" transform="translate(219,681)"/>
<path d="M0 0 C3.96 0 7.92 0 12 0 C12 3.96 12 7.92 12 12 C8.04 12 4.08 12 0 12 C0 8.04 0 4.08 0 0 Z " fill="#DBB179" transform="translate(723,681)"/>
<path d="M0 0 C3.96 0 7.92 0 12 0 C12 3.96 12 7.92 12 12 C8.04 12 4.08 12 0 12 C0 8.04 0 4.08 0 0 Z " fill="#4B4857" transform="translate(747,669)"/>
<path d="M0 0 C3.96 0 7.92 0 12 0 C12 3.96 12 7.92 12 12 C8.04 12 4.08 12 0 12 C0 8.04 0 4.08 0 0 Z " fill="#4B4A58" transform="translate(207,669)"/>
<path d="M0 0 C3.96 0 7.92 0 12 0 C12 3.96 12 7.92 12 12 C8.04 12 4.08 12 0 12 C0 8.04 0 4.08 0 0 Z " fill="#DCB279" transform="translate(183,645)"/>
<path d="M0 0 C3.96 0 7.92 0 12 0 C12 3.96 12 7.92 12 12 C8.04 12 4.08 12 0 12 C0 8.04 0 4.08 0 0 Z " fill="#6E7C8D" transform="translate(699,633)"/>
<path d="M0 0 C3.96 0 7.92 0 12 0 C12 3.96 12 7.92 12 12 C8.04 12 4.08 12 0 12 C0 8.04 0 4.08 0 0 Z " fill="#4B4956" transform="translate(1095,621)"/>
<path d="M0 0 C3.96 0 7.92 0 12 0 C12 3.96 12 7.92 12 12 C8.04 12 4.08 12 0 12 C0 8.04 0 4.08 0 0 Z " fill="#4B4956" transform="translate(1107,609)"/>
<path d="M0 0 C3.96 0 7.92 0 12 0 C12 3.96 12 7.92 12 12 C8.04 12 4.08 12 0 12 C0 8.04 0 4.08 0 0 Z " fill="#6F7D8E" transform="translate(675,597)"/>
<path d="M0 0 C3.96 0 7.92 0 12 0 C12 3.96 12 7.92 12 12 C8.04 12 4.08 12 0 12 C0 8.04 0 4.08 0 0 Z " fill="#6F7D8E" transform="translate(663,585)"/>
<path d="M0 0 C3.96 0 7.92 0 12 0 C12 3.96 12 7.92 12 12 C8.04 12 4.08 12 0 12 C0 8.04 0 4.08 0 0 Z " fill="#6F7D8E" transform="translate(651,573)"/>
<path d="M0 0 C3.96 0 7.92 0 12 0 C12 3.96 12 7.92 12 12 C8.04 12 4.08 12 0 12 C0 8.04 0 4.08 0 0 Z " fill="#4B4957" transform="translate(459,573)"/>
<path d="M0 0 C3.96 0 7.92 0 12 0 C12 3.96 12 7.92 12 12 C8.04 12 4.08 12 0 12 C0 8.04 0 4.08 0 0 Z " fill="#4B4956" transform="translate(711,561)"/>
<path d="M0 0 C3.96 0 7.92 0 12 0 C12 3.96 12 7.92 12 12 C8.04 12 4.08 12 0 12 C0 8.04 0 4.08 0 0 Z " fill="#4A4958" transform="translate(627,561)"/>
<path d="M0 0 C3.96 0 7.92 0 12 0 C12 3.96 12 7.92 12 12 C8.04 12 4.08 12 0 12 C0 8.04 0 4.08 0 0 Z " fill="#4B4957" transform="translate(471,561)"/>
<path d="M0 0 C3.96 0 7.92 0 12 0 C12 3.96 12 7.92 12 12 C8.04 12 4.08 12 0 12 C0 8.04 0 4.08 0 0 Z " fill="#4B4956" transform="translate(699,549)"/>
<path d="M0 0 C3.96 0 7.92 0 12 0 C12 3.96 12 7.92 12 12 C8.04 12 4.08 12 0 12 C0 8.04 0 4.08 0 0 Z " fill="#4B4956" transform="translate(1035,537)"/>
<path d="M0 0 C3.96 0 7.92 0 12 0 C12 3.96 12 7.92 12 12 C8.04 12 4.08 12 0 12 C0 8.04 0 4.08 0 0 Z " fill="#4B4956" transform="translate(351,513)"/>
<path d="M0 0 C3.96 0 7.92 0 12 0 C12 3.96 12 7.92 12 12 C8.04 12 4.08 12 0 12 C0 8.04 0 4.08 0 0 Z " fill="#4B4955" transform="translate(783,489)"/>
<path d="M0 0 C3.96 0 7.92 0 12 0 C12 3.96 12 7.92 12 12 C8.04 12 4.08 12 0 12 C0 8.04 0 4.08 0 0 Z " fill="#4B4955" transform="translate(339,489)"/>
<path d="M0 0 C3.96 0 7.92 0 12 0 C12 3.96 12 7.92 12 12 C8.04 12 4.08 12 0 12 C0 8.04 0 4.08 0 0 Z " fill="#D9B178" transform="translate(699,465)"/>
<path d="M0 0 C3.96 0 7.92 0 12 0 C12 3.96 12 7.92 12 12 C8.04 12 4.08 12 0 12 C0 8.04 0 4.08 0 0 Z " fill="#ECC255" transform="translate(915,429)"/>
<path d="M0 0 C3.96 0 7.92 0 12 0 C12 3.96 12 7.92 12 12 C8.04 12 4.08 12 0 12 C0 8.04 0 4.08 0 0 Z " fill="#4B4657" transform="translate(675,429)"/>
<path d="M0 0 C3.96 0 7.92 0 12 0 C12 3.96 12 7.92 12 12 C8.04 12 4.08 12 0 12 C0 8.04 0 4.08 0 0 Z " fill="#4B4657" transform="translate(651,429)"/>
<path d="M0 0 C3.96 0 7.92 0 12 0 C12 3.96 12 7.92 12 12 C8.04 12 4.08 12 0 12 C0 8.04 0 4.08 0 0 Z " fill="#4B4657" transform="translate(627,429)"/>
<path d="M0 0 C3.96 0 7.92 0 12 0 C12 3.96 12 7.92 12 12 C8.04 12 4.08 12 0 12 C0 8.04 0 4.08 0 0 Z " fill="#4B4757" transform="translate(411,429)"/>
<path d="M0 0 C3.96 0 7.92 0 12 0 C12 3.96 12 7.92 12 12 C8.04 12 4.08 12 0 12 C0 8.04 0 4.08 0 0 Z " fill="#4B4956" transform="translate(267,429)"/>
<path d="M0 0 C3.96 0 7.92 0 12 0 C12 3.96 12 7.92 12 12 C8.04 12 4.08 12 0 12 C0 8.04 0 4.08 0 0 Z " fill="#ECC255" transform="translate(843,417)"/>
<path d="M0 0 C3.96 0 7.92 0 12 0 C12 3.96 12 7.92 12 12 C8.04 12 4.08 12 0 12 C0 8.04 0 4.08 0 0 Z " fill="#ECC255" transform="translate(231,369)"/>
<path d="M0 0 C3.96 0 7.92 0 12 0 C12 3.96 12 7.92 12 12 C8.04 12 4.08 12 0 12 C0 8.04 0 4.08 0 0 Z " fill="#D96588" transform="translate(507,321)"/>
<path d="M0 0 C3.96 0 7.92 0 12 0 C12 3.96 12 7.92 12 12 C8.04 12 4.08 12 0 12 C0 8.04 0 4.08 0 0 Z " fill="#D96588" transform="translate(507,297)"/>
<path d="M0 0 C3.96 0 7.92 0 12 0 C12 3.96 12 7.92 12 12 C8.04 12 4.08 12 0 12 C0 8.04 0 4.08 0 0 Z " fill="#4B4956" transform="translate(759,273)"/>
<path d="M0 0 C3.96 0 7.92 0 12 0 C12 3.96 12 7.92 12 12 C8.04 12 4.08 12 0 12 C0 8.04 0 4.08 0 0 Z " fill="#DCB179" transform="translate(747,273)"/>
<path d="M0 0 C3.96 0 7.92 0 12 0 C12 3.96 12 7.92 12 12 C8.04 12 4.08 12 0 12 C0 8.04 0 4.08 0 0 Z " fill="#4A4657" transform="translate(483,237)"/>
<path d="M0 0 C3.96 0 7.92 0 12 0 C12 3.96 12 7.92 12 12 C8.04 12 4.08 12 0 12 C0 8.04 0 4.08 0 0 Z " fill="#D96588" transform="translate(471,237)"/>
<path d="M0 0 C3.96 0 7.92 0 12 0 C12 3.96 12 7.92 12 12 C8.04 12 4.08 12 0 12 C0 8.04 0 4.08 0 0 Z " fill="#D96588" transform="translate(711,225)"/>
<path d="M0 0 C3.96 0 7.92 0 12 0 C12 3.96 12 7.92 12 12 C8.04 12 4.08 12 0 12 C0 8.04 0 4.08 0 0 Z " fill="#4B4957" transform="translate(135,225)"/>
<path d="M0 0 C3.96 0 7.92 0 12 0 C12 3.96 12 7.92 12 12 C8.04 12 4.08 12 0 12 C0 8.04 0 4.08 0 0 Z " fill="#4B4657" transform="translate(483,213)"/>
<path d="M0 0 C3.96 0 7.92 0 12 0 C12 3.96 12 7.92 12 12 C8.04 12 4.08 12 0 12 C0 8.04 0 4.08 0 0 Z " fill="#D96588" transform="translate(471,213)"/>
<path d="M0 0 C3.96 0 7.92 0 12 0 C12 3.96 12 7.92 12 12 C8.04 12 4.08 12 0 12 C0 8.04 0 4.08 0 0 Z " fill="#C2B4AC" transform="translate(111,105)"/>
</svg>
